<svg width="38" height="38" viewBox="0 0 38 38" fill="none" xmlns="http://www.w3.org/2000/svg">
<path d="M12.825 21.1217L17.3059 16.6409L7.50504 6.85589C6.74504 6.09589 5.43088 6.30172 4.95588 7.28339C3.83171 9.64255 4.24338 12.5401 6.19088 14.5034L12.825 21.1217ZM23.56 18.2559C25.9825 19.3801 29.3867 18.5884 31.9042 16.0709C34.9284 13.0467 35.5142 8.70839 33.1867 6.38089C30.875 4.06922 26.5367 4.63922 23.4967 7.66339C20.9792 10.1809 20.1875 13.5851 21.3117 16.0076L6.96671 30.3526C6.67066 30.6486 6.50434 31.0501 6.50434 31.4688C6.50434 31.8875 6.67066 32.289 6.96671 32.5851C7.26276 32.8811 7.66429 33.0474 8.08296 33.0474C8.50164 33.0474 8.90316 32.8811 9.19921 32.5851L19 22.8159L28.785 32.6009C28.9316 32.7475 29.1057 32.8638 29.2972 32.9431C29.4887 33.0224 29.694 33.0633 29.9013 33.0633C30.1086 33.0633 30.3139 33.0224 30.5054 32.9431C30.6969 32.8638 30.871 32.7475 31.0175 32.6009C31.1641 32.4543 31.2804 32.2803 31.3597 32.0887C31.4391 31.8972 31.4799 31.6919 31.4799 31.4846C31.4799 31.2773 31.4391 31.0721 31.3597 30.8805C31.2804 30.689 31.1641 30.515 31.0175 30.3684L21.2325 20.5834L23.56 18.2559Z" fill="#F2A922"/>
</svg>
