<svg width="190" height="157" viewBox="0 0 190 157" fill="none" xmlns="http://www.w3.org/2000/svg">
<g clip-path="url(#clip0_36_277)">
<path d="M98.2541 0H43.0432C34.4562 0 27.4951 6.9225 27.4951 15.4618V140.925C27.4951 149.464 34.4562 156.387 43.0432 156.387H98.2541C106.841 156.387 113.802 149.464 113.802 140.925V15.4618C113.802 6.9225 106.841 0 98.2541 0Z" fill="#3F3D56"/>
<path d="M112.346 15.463V140.925C112.342 144.641 110.856 148.203 108.214 150.83C105.572 153.457 101.99 154.935 98.2538 154.939H43.0437C39.3075 154.935 35.7255 153.457 33.0836 150.83C30.4417 148.203 28.9556 144.641 28.9513 140.925V15.463C28.9556 11.7475 30.4417 8.18542 33.0836 5.55817C35.7255 2.93091 39.3075 1.45303 43.0437 1.44873H50.2633V3.92881C50.2634 5.05158 50.7119 6.12835 51.5103 6.92227C52.3086 7.71619 53.3914 8.16224 54.5204 8.1623H86.777C87.9061 8.16224 88.9888 7.71619 89.7872 6.92227C90.5855 6.12835 91.0341 5.05158 91.0341 3.92881V1.44873H98.2538C101.99 1.45303 105.572 2.93091 108.214 5.55817C110.856 8.18542 112.342 11.7475 112.346 15.463Z" fill="white"/>
<path d="M88.7257 69.0111C85.5252 67.5762 81.9574 70.8242 84.3315 73.8635C76.3106 81.1291 64.4004 83.6858 54.0315 80.6465C53.7758 81.2596 53.5068 81.8661 53.2314 82.4727C49.111 91.5475 43.2087 99.7121 35.8712 106.487C45.5318 98.4974 57.4354 105.248 67.6731 107.876C68.3698 107.995 69.0167 108.313 69.5346 108.791C70.0526 109.269 70.4192 109.887 70.5897 110.569C70.7601 111.252 70.727 111.968 70.4944 112.632C70.2618 113.296 69.8398 113.878 69.2799 114.307C67.9759 113.827 66.6269 113.477 65.253 113.263C64.6048 113.165 63.9421 113.27 63.3559 113.562C62.7697 113.854 62.2889 114.319 61.9797 114.894C61.6705 115.469 61.5481 116.125 61.6292 116.772C61.7104 117.419 61.9911 118.025 62.4329 118.507C51.7098 123.62 38.37 121.736 29.1685 114.392V110.028C38.908 102.591 46.6769 92.9045 51.8017 81.8074C53.6031 77.91 55.0602 73.8641 56.1565 69.7155C57.3544 65.1782 58.0927 60.5331 58.3601 55.8496C56.5959 50.6776 56.891 44.6055 59.8292 39.9096C61.0425 42.101 64.5381 42.6684 64.9054 39.6292C64.9841 38.403 65.0431 37.1769 65.1153 35.9572C78.2912 34.9463 76.0417 53.2929 59.921 56.1626C59.6067 60.8752 58.838 65.5469 57.6255 70.1133C57.5141 70.5699 57.3895 71.0199 57.2583 71.4699C60.2044 67.4673 64.0638 64.2171 68.5191 61.9868C72.7756 60.0041 77.7337 59.5802 82.4624 58.8171C88.2142 57.8844 92.2869 64.4196 88.7257 69.0111Z" fill="#F2F2F2"/>
<path d="M27.0979 31.7249C26.8172 31.7246 26.548 31.6135 26.3495 31.4161C26.1509 31.2187 26.0393 30.951 26.0389 30.6718V28.5656C26.0389 28.2863 26.1505 28.0184 26.3491 27.8209C26.5477 27.6234 26.8171 27.5125 27.0979 27.5125C27.3788 27.5125 27.6481 27.6234 27.8467 27.8209C28.0453 28.0184 28.1569 28.2863 28.1569 28.5656V30.6718C28.1566 30.951 28.0449 31.2187 27.8464 31.4161C27.6479 31.6135 27.3787 31.7246 27.0979 31.7249Z" fill="#3F3D56"/>
<path d="M27.0979 42.5251C26.8172 42.5248 26.548 42.4137 26.3495 42.2163C26.1509 42.0188 26.0393 41.7512 26.0389 41.472V35.6742C26.0389 35.3949 26.1505 35.127 26.3491 34.9295C26.5477 34.732 26.8171 34.6211 27.0979 34.6211C27.3788 34.6211 27.6481 34.732 27.8467 34.9295C28.0453 35.127 28.1569 35.3949 28.1569 35.6742V41.472C28.1566 41.7512 28.0449 42.0188 27.8464 42.2163C27.6479 42.4137 27.3787 42.5248 27.0979 42.5251Z" fill="#3F3D56"/>
<path d="M27.0979 51.2074C26.8172 51.2071 26.548 51.0961 26.3495 50.8986C26.1509 50.7012 26.0393 50.4335 26.0389 50.1543V44.3566C26.0389 44.0773 26.1505 43.8094 26.3491 43.6119C26.5477 43.4144 26.8171 43.3035 27.0979 43.3035C27.3788 43.3035 27.6481 43.4144 27.8467 43.6119C28.0453 43.8094 28.1569 44.0773 28.1569 44.3566V50.1543C28.1566 50.4335 28.0449 50.7012 27.8464 50.8986C27.6479 51.0961 27.3787 51.2071 27.0979 51.2074Z" fill="#3F3D56"/>
<path d="M113.934 46.4683C113.654 46.468 113.385 46.357 113.186 46.1595C112.987 45.9621 112.876 45.6944 112.875 45.4152V31.2684C112.875 30.9891 112.987 30.7213 113.186 30.5238C113.384 30.3263 113.654 30.2153 113.934 30.2153C114.215 30.2153 114.485 30.3263 114.683 30.5238C114.882 30.7213 114.993 30.9891 114.993 31.2684V45.4152C114.993 45.6944 114.881 45.9621 114.683 46.1595C114.484 46.357 114.215 46.468 113.934 46.4683Z" fill="#3F3D56"/>
<path d="M72.9234 4.83006H64.7163C64.5408 4.83006 64.3724 4.76071 64.2483 4.63728C64.1242 4.51384 64.0544 4.34643 64.0544 4.17187C64.0544 3.9973 64.1242 3.82989 64.2483 3.70645C64.3724 3.58302 64.5408 3.51367 64.7163 3.51367H72.9234C73.099 3.51367 73.2673 3.58302 73.3914 3.70645C73.5156 3.82989 73.5853 3.9973 73.5853 4.17187C73.5853 4.34643 73.5156 4.51384 73.3914 4.63728C73.2673 4.76071 73.099 4.83006 72.9234 4.83006Z" fill="white"/>
<path d="M77.1594 4.69837C77.4518 4.69837 77.6889 4.46263 77.6889 4.17182C77.6889 3.88101 77.4518 3.64526 77.1594 3.64526C76.8669 3.64526 76.6299 3.88101 76.6299 4.17182C76.6299 4.46263 76.8669 4.69837 77.1594 4.69837Z" fill="white"/>
<path d="M52.6105 39.6312H43.4152C42.1424 39.6298 40.9221 39.1263 40.0221 38.2313C39.1221 37.3362 38.6158 36.1227 38.6144 34.857V25.7127C38.6158 24.4469 39.1221 23.2334 40.0221 22.3384C40.9221 21.4434 42.1424 20.9399 43.4152 20.9385H52.6105C53.8833 20.9399 55.1036 21.4434 56.0036 22.3384C56.9036 23.2334 57.4099 24.4469 57.4113 25.7127V34.857C57.4099 36.1227 56.9036 37.3362 56.0036 38.2313C55.1036 39.1263 53.8833 39.6298 52.6105 39.6312ZM43.4152 21.465C42.2828 21.4663 41.1971 21.9143 40.3964 22.7106C39.5956 23.5069 39.1452 24.5865 39.1439 25.7127V34.857C39.1452 35.9831 39.5956 37.0628 40.3964 37.8591C41.1971 38.6554 42.2828 39.1033 43.4152 39.1046H52.6105C53.7429 39.1033 54.8286 38.6554 55.6293 37.8591C56.4301 37.0628 56.8805 35.9831 56.8818 34.857V25.7127C56.8805 24.5865 56.4301 23.5069 55.6293 22.7106C54.8286 21.9143 53.7429 21.4663 52.6105 21.465L43.4152 21.465Z" fill="#E6E6E6"/>
<path d="M75.2462 39.7628H66.051C64.7781 39.7613 63.5579 39.2579 62.6578 38.3629C61.7578 37.4678 61.2516 36.2543 61.2501 34.9886V25.8443C61.2516 24.5785 61.7578 23.365 62.6578 22.47C63.5579 21.575 64.7781 21.0715 66.051 21.0701H75.2462C76.519 21.0715 77.7393 21.575 78.6393 22.47C79.5394 23.365 80.0456 24.5785 80.0471 25.8443V34.9885C80.0456 36.2543 79.5394 37.4678 78.6393 38.3629C77.7393 39.2579 76.519 39.7613 75.2462 39.7628ZM66.051 21.5966C64.9185 21.5979 63.8328 22.0459 63.0321 22.8422C62.2313 23.6385 61.7809 24.7181 61.7796 25.8443V34.9885C61.7809 36.1147 62.2313 37.1944 63.0321 37.9907C63.8328 38.787 64.9185 39.2349 66.051 39.2362H75.2462C76.3787 39.2349 77.4643 38.787 78.2651 37.9907C79.0658 37.1944 79.5163 36.1147 79.5176 34.9885V25.8443C79.5163 24.7181 79.0658 23.6385 78.2651 22.8422C77.4643 22.0458 76.3787 21.5979 75.2462 21.5966L66.051 21.5966Z" fill="#E6E6E6"/>
<path d="M97.882 39.8944H88.6867C87.4139 39.8929 86.1936 39.3895 85.2936 38.4944C84.3936 37.5994 83.8873 36.3859 83.8859 35.1201V25.9759C83.8873 24.7101 84.3936 23.4966 85.2936 22.6016C86.1936 21.7065 87.4139 21.2031 88.6867 21.2017H97.882C99.1548 21.2031 100.375 21.7065 101.275 22.6016C102.175 23.4966 102.681 24.7101 102.683 25.9759V35.1201C102.681 36.3859 102.175 37.5994 101.275 38.4944C100.375 39.3895 99.1548 39.8929 97.882 39.8944ZM88.6867 21.7282C87.5543 21.7295 86.4686 22.1774 85.6678 22.9738C84.8671 23.7701 84.4167 24.8497 84.4154 25.9759V35.1201C84.4167 36.2463 84.8671 37.326 85.6678 38.1223C86.4686 38.9186 87.5543 39.3665 88.6867 39.3678H97.882C99.0144 39.3665 100.1 38.9186 100.901 38.1223C101.702 37.326 102.152 36.2463 102.153 35.1201V25.9759C102.152 24.8497 101.702 23.77 100.901 22.9737C100.1 22.1774 99.0144 21.7295 97.882 21.7282L88.6867 21.7282Z" fill="#E6E6E6"/>
<path d="M52.6105 65.6956H43.4152C42.1424 65.6942 40.9221 65.1907 40.0221 64.2957C39.1221 63.4007 38.6158 62.1872 38.6144 60.9214V51.7771C38.6158 50.5114 39.1221 49.2979 40.0221 48.4028C40.9221 47.5078 42.1424 47.0044 43.4152 47.0029H52.6105C53.8833 47.0044 55.1036 47.5078 56.0036 48.4028C56.9036 49.2979 57.4099 50.5114 57.4113 51.7771V60.9214C57.4099 62.1872 56.9036 63.4007 56.0036 64.2957C55.1036 65.1908 53.8833 65.6942 52.6105 65.6956ZM43.4152 47.5295C42.2828 47.5308 41.1971 47.9787 40.3964 48.775C39.5956 49.5713 39.1452 50.651 39.1439 51.7771V60.9214C39.1452 62.0476 39.5956 63.1272 40.3964 63.9235C41.1971 64.7198 42.2828 65.1678 43.4152 65.1691H52.6105C53.7429 65.1678 54.8286 64.7198 55.6293 63.9235C56.4301 63.1272 56.8805 62.0476 56.8818 60.9214V51.7771C56.8805 50.651 56.4301 49.5713 55.6293 48.775C54.8286 47.9787 53.7429 47.5308 52.6105 47.5295L43.4152 47.5295Z" fill="#E6E6E6"/>
<path d="M75.2462 65.8272H66.051C64.7781 65.8258 63.5579 65.3223 62.6578 64.4273C61.7578 63.5323 61.2516 62.3188 61.2501 61.053V51.9087C61.2516 50.643 61.7578 49.4295 62.6578 48.5344C63.5579 47.6394 64.7781 47.136 66.051 47.1345H75.2462C76.519 47.136 77.7393 47.6394 78.6393 48.5344C79.5394 49.4295 80.0456 50.643 80.0471 51.9087V61.053C80.0456 62.3188 79.5394 63.5323 78.6393 64.4273C77.7393 65.3223 76.519 65.8258 75.2462 65.8272ZM66.051 47.6611C64.9185 47.6624 63.8328 48.1103 63.0321 48.9066C62.2313 49.7029 61.7809 50.7826 61.7796 51.9087V61.053C61.7809 62.1792 62.2313 63.2588 63.0321 64.0551C63.8328 64.8514 64.9185 65.2994 66.051 65.3007H75.2462C76.3787 65.2994 77.4643 64.8514 78.2651 64.0551C79.0658 63.2588 79.5163 62.1792 79.5176 61.053V51.9087C79.5163 50.7826 79.0658 49.7029 78.2651 48.9066C77.4643 48.1103 76.3787 47.6624 75.2462 47.6611L66.051 47.6611Z" fill="#E6E6E6"/>
<path d="M97.882 65.9588H88.6867C87.4139 65.9574 86.1936 65.4539 85.2936 64.5589C84.3936 63.6639 83.8873 62.4504 83.8859 61.1846V52.0403C83.8873 50.7746 84.3936 49.5611 85.2936 48.666C86.1936 47.771 87.4139 47.2675 88.6867 47.2661H97.882C99.1548 47.2675 100.375 47.771 101.275 48.666C102.175 49.5611 102.681 50.7746 102.683 52.0403V61.1846C102.681 62.4504 102.175 63.6639 101.275 64.5589C100.375 65.4539 99.1548 65.9574 97.882 65.9588ZM88.6867 47.7927C87.5543 47.794 86.4686 48.2419 85.6678 49.0382C84.8671 49.8345 84.4167 50.9142 84.4154 52.0403V61.1846C84.4167 62.3107 84.8671 63.3904 85.6678 64.1867C86.4686 64.983 87.5543 65.431 88.6867 65.4323H97.882C99.0144 65.431 100.1 64.9831 100.901 64.1867C101.702 63.3904 102.152 62.3108 102.153 61.1846V52.0403C102.152 50.9142 101.702 49.8345 100.901 49.0382C100.1 48.2419 99.0144 47.7939 97.882 47.7927L88.6867 47.7927Z" fill="#E6E6E6"/>
<path d="M52.6105 144.679H43.4152C42.2126 144.677 41.0596 144.202 40.2092 143.356C39.3588 142.51 38.8805 141.364 38.8792 140.168V131.024C38.8805 129.828 39.3588 128.681 40.2092 127.835C41.0596 126.99 42.2126 126.514 43.4152 126.513H52.6105C53.8131 126.514 54.9661 126.99 55.8165 127.835C56.6669 128.681 57.1453 129.828 57.1466 131.024V140.168C57.1453 141.364 56.6669 142.51 55.8165 143.356C54.9661 144.202 53.8131 144.677 52.6105 144.679Z" fill="#F2A922"/>
<path d="M52.6105 144.679H43.4152C42.2126 144.677 41.0596 144.202 40.2092 143.356C39.3588 142.51 38.8805 141.364 38.8792 140.168V131.024C38.8805 129.828 39.3588 128.681 40.2092 127.835C41.0596 126.99 42.2126 126.514 43.4152 126.513H52.6105C53.8131 126.514 54.9661 126.99 55.8165 127.835C56.6669 128.681 57.1453 129.828 57.1466 131.024V140.168C57.1453 141.364 56.6669 142.51 55.8165 143.356C54.9661 144.202 53.8131 144.677 52.6105 144.679Z" fill="black" fill-opacity="0.2"/>
<path d="M75.2463 144.81H66.051C64.8484 144.809 63.6954 144.333 62.845 143.488C61.9946 142.642 61.5162 141.495 61.5149 140.299V131.155C61.5162 129.959 61.9946 128.813 62.845 127.967C63.6954 127.121 64.8484 126.646 66.051 126.644H75.2463C76.4489 126.646 77.6019 127.121 78.4523 127.967C79.3027 128.813 79.781 129.959 79.7823 131.155V140.299C79.781 141.495 79.3027 142.642 78.4523 143.488C77.6019 144.333 76.4489 144.809 75.2463 144.81Z" fill="#E6E6E6"/>
<path d="M97.882 144.942H88.6867C87.4841 144.941 86.3311 144.465 85.4807 143.619C84.6303 142.774 84.152 141.627 84.1506 140.431V131.287C84.152 130.091 84.6303 128.944 85.4807 128.099C86.3311 127.253 87.4841 126.777 88.6867 126.776H97.882C99.0846 126.777 100.238 127.253 101.088 128.099C101.938 128.944 102.417 130.091 102.418 131.287V140.431C102.417 141.627 101.938 142.774 101.088 143.619C100.238 144.465 99.0846 144.941 97.882 144.942Z" fill="#E6E6E6"/>
<path d="M65.8832 119.009C66.6143 119.009 67.2069 118.42 67.2069 117.693C67.2069 116.966 66.6143 116.376 65.8832 116.376C65.1521 116.376 64.5594 116.966 64.5594 117.693C64.5594 118.42 65.1521 119.009 65.8832 119.009Z" fill="#CCCCCC"/>
<path d="M70.6487 119.009C71.3798 119.009 71.9724 118.42 71.9724 117.693C71.9724 116.966 71.3798 116.376 70.6487 116.376C69.9176 116.376 69.325 116.966 69.325 117.693C69.325 118.42 69.9176 119.009 70.6487 119.009Z" fill="#E6E6E6"/>
<path d="M75.4141 119.009C76.1451 119.009 76.7378 118.42 76.7378 117.693C76.7378 116.966 76.1451 116.376 75.4141 116.376C74.683 116.376 74.0903 116.966 74.0903 117.693C74.0903 118.42 74.683 119.009 75.4141 119.009Z" fill="#E6E6E6"/>
<path d="M102.309 147.707H39.0595C37.6172 147.705 36.2346 147.135 35.2148 146.12C34.195 145.106 33.6213 143.731 33.6196 142.297V128.895C33.6213 127.46 34.195 126.085 35.2148 125.071C36.2346 124.057 37.6172 123.487 39.0595 123.485H102.309C103.751 123.487 105.133 124.057 106.153 125.071C107.173 126.085 107.747 127.46 107.748 128.895V142.297C107.747 143.731 107.173 145.106 106.153 146.12C105.133 147.135 103.751 147.705 102.309 147.707ZM39.0595 124.012C37.7576 124.013 36.5095 124.528 35.589 125.443C34.6684 126.359 34.1506 127.6 34.1491 128.895V142.297C34.1506 143.592 34.6684 144.833 35.589 145.748C36.5095 146.664 37.7576 147.179 39.0595 147.18H102.309C103.61 147.179 104.858 146.664 105.779 145.748C106.7 144.833 107.217 143.592 107.219 142.297V128.895C107.217 127.6 106.7 126.359 105.779 125.443C104.858 124.528 103.61 124.013 102.309 124.012H39.0595Z" fill="#E6E6E6"/>
<path d="M157.291 34.1434C156.763 34.2248 156.288 34.5078 155.967 34.9321C155.645 35.3564 155.503 35.8887 155.571 36.4155C155.586 36.5224 155.61 36.6278 155.643 36.7307L149.952 41.0391L151.134 44.6802L158.289 37.94C158.708 37.7713 159.058 37.4697 159.286 37.0821C159.514 36.6944 159.607 36.2427 159.549 35.7973C159.514 35.5441 159.429 35.3004 159.299 35.0798C159.17 34.8593 158.997 34.6664 158.793 34.5121C158.588 34.3578 158.354 34.2451 158.106 34.1805C157.857 34.1158 157.598 34.1005 157.344 34.1354C157.326 34.1379 157.308 34.1405 157.291 34.1434Z" fill="#FFB6B6"/>
<path d="M118.029 54.119C118.066 55.0111 118.452 55.8537 119.104 56.4671C119.757 57.0805 120.624 57.4161 121.522 57.4024L132.267 57.2389L145.856 50.9718C145.856 50.9718 150.287 47.2315 151.523 47.1434C152.758 47.0553 153.416 48.1985 153.136 47.1548C152.856 46.111 152.486 45.4124 153.435 45.5098C154.385 45.6072 154.234 43.6812 154.444 42.9526C154.653 42.2241 151.765 39.5947 151.765 39.5947C151.765 39.5947 149.684 39.6348 149.548 39.9067C149.412 40.1787 149.886 40.864 148.767 40.8346C147.649 40.8053 146.795 40.8521 146.76 41.3685C146.725 41.885 146.806 42.2876 146.186 42.6875C145.567 43.0875 142.769 45.1495 142.769 45.1495L120.633 50.6585C119.865 50.8496 119.187 51.2981 118.713 51.9284C118.239 52.5588 117.997 53.3324 118.029 54.119Z" fill="#3F3D56"/>
<path d="M123.783 151.33H126.705L128.096 140.122H123.783V151.33Z" fill="#FFB6B6"/>
<path d="M122.829 149.34L127.498 149.063V151.052L131.937 154.1C132.156 154.251 132.321 154.467 132.408 154.718C132.495 154.968 132.499 155.24 132.419 155.493C132.34 155.746 132.182 155.967 131.967 156.124C131.752 156.281 131.493 156.365 131.227 156.365H125.669L124.71 154.398L124.336 156.365H122.241L122.829 149.34Z" fill="#2F2E41"/>
<path d="M128.663 79.5176L130.252 69.7763L119.133 67.1436V77.2352L128.663 79.5176Z" fill="#FFB6B6"/>
<path d="M114.764 88.864L120.201 124.005C120.201 124.005 119.881 139.279 122.353 142.769L122.971 146.522H128.549C128.549 146.522 128.446 144.217 129.018 142.868C129.59 141.519 130.384 142.413 129.59 141.176C128.796 139.94 128.711 140.077 129.018 139.087C129.325 138.097 129.504 93.2143 129.504 93.2143L114.764 88.864Z" fill="#2F2E41"/>
<path d="M118.075 134.072L119.769 136.44L129.761 131.072L127.261 127.576L118.075 134.072Z" fill="#FFB6B6"/>
<path d="M119.154 132.145L122.086 135.768L120.456 136.921L120.53 142.285C120.534 142.55 120.452 142.809 120.297 143.024C120.142 143.24 119.922 143.401 119.669 143.483C119.416 143.565 119.143 143.565 118.89 143.482C118.637 143.399 118.417 143.238 118.262 143.022L115.042 138.517L116.099 136.601L114.27 137.438L113.055 135.739L119.154 132.145Z" fill="#2F2E41"/>
<path d="M118.603 71.3562L118.527 75.4334C118.527 75.4334 108.478 84.2031 116.056 94.8927C116.056 94.8927 117.01 97.9702 118.336 97.8271C119.662 97.6839 120.337 98.4196 120 99.1049C119.662 99.7902 132.545 108.128 132.545 108.128C132.545 108.128 124.054 126.745 122.045 130.857L123.368 135.069C123.368 135.069 122.667 136.699 123.746 136.081C124.825 135.464 124.294 135.38 125.486 135.159C126.678 134.938 128.147 134.43 128.074 134.157C128.002 133.885 142.896 110.967 142.896 110.967C142.896 110.967 146.465 107.192 143.852 102.767C143.489 102.686 143.48 102.767 143.48 102.767L130.706 88.3019L129.193 78.728L118.603 71.3562Z" fill="#2F2E41"/>
<path d="M130.094 45.2193L123.66 42.2205L121.734 45.5537C121.734 45.5537 116.56 52.8956 116.485 58.1923C116.41 63.4889 117.328 65.064 117.328 65.064C117.328 65.064 115.097 66.7224 116.213 67.7362C117.328 68.7499 119.797 69.1873 117.901 69.6268C116.004 70.0663 116.485 74.5155 118.603 75.3053C120.721 76.0951 132.096 76.0882 132.096 76.0882C131.993 75.7433 131.986 75.3774 132.074 75.0286C132.162 74.6797 132.342 74.3607 132.596 74.1046C133.478 73.2256 134.272 73.8563 133.478 72.4879C132.683 71.1194 131.36 71.9092 132.419 70.0663C133.478 68.2233 133.477 67.6726 133.477 67.6726C133.477 67.6726 136.056 63.2492 132.384 59.1543C128.712 55.0595 132.353 58.8737 132.353 58.8737L129.727 50.1235L130.094 45.2193Z" fill="#3F3D56"/>
<path d="M156.162 71.0929H146.966C145.764 71.0916 144.611 70.6159 143.76 69.7702C142.91 68.9245 142.432 67.7779 142.43 66.582V57.4377C142.432 56.2417 142.91 55.0951 143.76 54.2495C144.611 53.4038 145.764 52.9281 146.966 52.9268H156.162C157.364 52.9281 158.517 53.4038 159.368 54.2495C160.218 55.0951 160.696 56.2417 160.698 57.4377V66.582C160.696 67.7779 160.218 68.9245 159.368 69.7702C158.517 70.6159 157.364 71.0916 156.162 71.0929Z" fill="#F2A922"/>
<path d="M156.162 71.0929H146.966C145.764 71.0916 144.611 70.6159 143.76 69.7702C142.91 68.9245 142.432 67.7779 142.43 66.582V57.4377C142.432 56.2417 142.91 55.0951 143.76 54.2495C144.611 53.4038 145.764 52.9281 146.966 52.9268H156.162C157.364 52.9281 158.517 53.4038 159.368 54.2495C160.218 55.0951 160.696 56.2417 160.698 57.4377V66.582C160.696 67.7779 160.218 68.9245 159.368 69.7702C158.517 70.6159 157.364 71.0916 156.162 71.0929Z" fill="black" fill-opacity="0.2"/>
<path d="M160.927 36.3402H151.732C150.529 36.3389 149.376 35.8632 148.526 35.0175C147.675 34.1718 147.197 33.0252 147.196 31.8293V22.685C147.197 21.489 147.675 20.3424 148.526 19.4968C149.376 18.6511 150.529 18.1754 151.732 18.1741H160.927C162.13 18.1754 163.283 18.6511 164.133 19.4968C164.983 20.3424 165.462 21.489 165.463 22.685V31.8293C165.462 33.0252 164.983 34.1718 164.133 35.0175C163.283 35.8632 162.13 36.3389 160.927 36.3402Z" fill="#F2A922"/>
<path d="M160.927 36.3402H151.732C150.529 36.3389 149.376 35.8632 148.526 35.0175C147.675 34.1718 147.197 33.0252 147.196 31.8293V22.685C147.197 21.489 147.675 20.3424 148.526 19.4968C149.376 18.6511 150.529 18.1754 151.732 18.1741H160.927C162.13 18.1754 163.283 18.6511 164.133 19.4968C164.983 20.3424 165.462 21.489 165.463 22.685V31.8293C165.462 33.0252 164.983 34.1718 164.133 35.0175C163.283 35.8632 162.13 36.3389 160.927 36.3402Z" fill="black" fill-opacity="0.2"/>
<path d="M136.043 41.7311L136.049 41.7305C136.346 41.6955 136.616 41.5446 136.801 41.3112C136.986 41.0777 137.071 40.7807 137.035 40.4855L136.299 34.274C136.168 33.161 135.813 32.0855 135.256 31.1116C134.165 29.2112 132.38 27.8027 130.271 27.1794C129.182 26.8589 128.04 26.761 126.912 26.8915C122.298 27.4254 120.847 28.7135 119.53 36.1656C118.213 43.6176 120.268 42.3866 120.268 42.3866C120.286 42.5363 120.333 42.681 120.408 42.812C120.555 43.0674 120.796 43.2566 121.08 43.3399C121.225 43.3824 121.378 43.3955 121.529 43.3782C127.165 43.5918 132.865 43.8662 136.044 41.731L136.043 41.7311Z" fill="#2F2E41"/>
<path d="M123.883 33.5705C123.424 34.7006 123.313 35.9404 123.562 37.1335C123.812 38.3265 124.411 39.4192 125.285 40.2736C126.159 41.128 127.268 41.7057 128.471 41.9338C129.675 42.1619 130.92 42.0302 132.048 41.5552C132.796 41.2433 133.474 40.787 134.043 40.2127C134.612 39.6384 135.06 38.9576 135.363 38.2096C135.82 37.0801 135.931 35.8414 135.681 34.6495C135.431 33.4575 134.832 32.3658 133.959 31.512C133.086 30.6582 131.979 30.0805 130.776 29.8518C129.574 29.623 128.33 29.7534 127.202 30.2266C126.454 30.5377 125.775 30.9936 125.205 31.5676C124.635 32.1417 124.186 32.8225 123.883 33.5707L123.883 33.5705Z" fill="#FFB6B6"/>
<path d="M138.34 34.5472C138.236 33.6669 137.956 32.8164 137.515 32.0461C137.019 30.0379 136.035 28.3327 133.573 28.9371C132.717 28.6856 131.82 28.6079 130.933 28.7084L129.683 28.8488C129.669 28.8504 129.654 28.852 129.64 28.8536C127.892 29.0598 126.298 29.9481 125.208 31.3232C124.119 32.6983 123.623 34.4474 123.831 36.1859L123.845 36.3103L126.491 36.0107L127.096 33.3996L127.574 35.8886L128.941 35.7344L129.245 34.4171L129.487 35.672C131.849 36.9897 134.882 36.4396 138.353 34.672L138.34 34.5472Z" fill="#2F2E41"/>
<path d="M131.293 42.09C131.358 42.286 131.367 42.4962 131.318 42.6968C131.293 42.7994 131.255 42.898 131.203 42.9899C131.158 43.0683 131.105 43.1411 131.043 43.2069C130.86 43.4013 130.614 43.5245 130.348 43.5545C130.332 43.5563 130.315 43.5578 130.298 43.559C130.282 43.5601 130.265 43.5609 130.248 43.5613C130.231 43.5619 130.215 43.562 130.198 43.5616C130.181 43.5613 130.164 43.5606 130.147 43.5596L129.188 43.5001L127.569 40.9049L127.868 43.4209L123.51 43.1575L122.243 32.4806L129.402 31.6755L129.249 31.9006C128.743 32.6549 128.457 33.5333 128.421 34.4392C128.389 35.3563 128.515 36.272 128.794 37.1466C129.069 38.0324 129.43 38.8898 129.87 39.7071C130.256 40.4316 130.684 41.1334 131.151 41.809C131.211 41.8956 131.259 41.9902 131.293 42.09Z" fill="#2F2E41"/>
<path d="M148.143 51.9468C147.646 52.1417 147.245 52.5216 147.026 53.0058C146.807 53.49 146.786 54.0403 146.968 54.5395C147.007 54.6404 147.054 54.7379 147.109 54.8311L142.51 60.2791L144.469 63.5723L149.957 55.4319C150.328 55.1758 150.603 54.8049 150.74 54.3769C150.877 53.9489 150.867 53.4879 150.712 53.066C150.622 52.8267 150.485 52.6075 150.31 52.4208C150.134 52.2341 149.924 52.0836 149.69 51.9778C149.456 51.8721 149.203 51.8132 148.947 51.8046C148.69 51.7959 148.434 51.8377 148.193 51.9274C148.176 51.9336 148.16 51.9401 148.143 51.9468Z" fill="#FFB6B6"/>
<path d="M124.058 50.8538C123.595 51.062 123.182 51.3669 122.848 51.7479C122.514 52.1288 122.266 52.5769 122.121 53.0616C121.977 53.5463 121.939 54.0562 122.01 54.5567C122.082 55.0572 122.261 55.5366 122.535 55.9622L126.942 62.7995L137.268 72.0142C137.268 72.0142 145.739 65.9588 146.004 63.8526C146.269 61.7464 145.475 61.2198 146.269 61.7464C147.063 62.2729 147.857 62.0096 147.593 61.7464C147.328 61.4831 147.432 61.4665 147.645 61.0799C147.857 60.6933 148.652 58.8503 148.652 58.8503L145.838 56.0859C145.838 56.0859 142.827 57.5339 142.562 58.3238C142.298 59.1136 143.357 58.8503 142.298 59.1136C141.239 59.3769 139.824 58.1828 140.929 59.438C142.033 60.6933 141.942 61.2385 140.929 61.2291C139.915 61.2198 138.062 63.8526 138.062 63.8526L128.265 51.8441C127.772 51.2401 127.092 50.8153 126.331 50.6362C125.57 50.457 124.771 50.5336 124.058 50.8538Z" fill="#3F3D56"/>
<path d="M155.605 150.079C155.798 150.086 155.989 150.033 156.151 149.929C156.314 149.825 156.44 149.673 156.513 149.495C156.586 149.317 156.602 149.12 156.559 148.933C156.516 148.745 156.416 148.575 156.273 148.446C156.248 148.352 156.231 148.285 156.206 148.191C156.386 147.722 156.704 147.317 157.117 147.029C157.53 146.74 158.02 146.581 158.525 146.572C159.03 146.562 159.526 146.703 159.95 146.975C160.374 147.248 160.707 147.641 160.905 148.102C162.048 150.695 163.521 153.375 162.829 156.249C167.486 146.185 165.75 133.737 158.643 125.235C156.691 124.189 155.099 122.314 154.668 120.124C155.632 120.438 156.823 119.65 156.091 118.65C155.774 118.268 155.454 117.889 155.137 117.507C158.751 113.606 163.159 119.642 159.19 124.898C160.521 126.525 161.676 128.285 162.638 130.151C162.401 128.163 162.642 126.147 163.341 124.269C164.052 122.518 165.4 121.037 166.585 119.518C168.026 117.668 171.036 118.487 171.255 120.816C169.913 121.268 169.756 123.204 171.299 123.454C170.937 127.794 168.127 131.805 164.222 133.744C165.709 137.773 166.316 142.071 166.002 146.351C166.647 141.346 172.031 140.082 175.783 138.059C176.021 137.904 176.3 137.821 176.585 137.821C176.871 137.82 177.15 137.902 177.389 138.057C177.628 138.212 177.816 138.432 177.932 138.691C178.047 138.951 178.084 139.238 178.037 139.518C177.519 139.733 177.023 139.999 176.558 140.312C176.34 140.461 176.173 140.673 176.081 140.92C175.989 141.167 175.976 141.436 176.044 141.69C176.111 141.944 176.256 142.172 176.459 142.341C176.662 142.51 176.912 142.613 177.176 142.635C175.32 147.331 170.435 150.52 165.387 150.55C164.922 152.651 164.239 154.698 163.348 156.658L155.856 156.729C155.829 156.646 155.804 156.561 155.779 156.479C156.472 156.515 157.168 156.468 157.85 156.336C155.995 154.193 154.566 153.105 155.605 150.079L155.605 150.079Z" fill="#F2F2F2"/>
<path d="M1.39442e-06 156.687C-0.000121995 156.728 0.00794472 156.769 0.0237346 156.807C0.0395245 156.845 0.0627284 156.879 0.0920096 156.908C0.121291 156.938 0.15607 156.961 0.194351 156.976C0.232632 156.992 0.273657 157 0.315065 157H189.685C189.769 157 189.849 156.967 189.908 156.908C189.967 156.849 190 156.77 190 156.687C190 156.604 189.967 156.524 189.908 156.465C189.849 156.406 189.769 156.373 189.685 156.373H0.315049C0.273643 156.373 0.232622 156.381 0.194343 156.397C0.156065 156.413 0.121285 156.436 0.0920055 156.465C0.0627263 156.494 0.039524 156.528 0.0237346 156.567C0.00794521 156.605 -0.00012058 156.645 1.39442e-06 156.687Z" fill="#CCCCCC"/>
<path d="M47.1091 7.65426H39.9609C39.6099 7.65426 39.2732 7.51557 39.0249 7.2687C38.7767 7.02183 38.6372 6.687 38.6372 6.33787C38.6372 5.98874 38.7767 5.65391 39.0249 5.40704C39.2732 5.16017 39.6099 5.02148 39.9609 5.02148H47.1091C47.4601 5.02148 47.7968 5.16017 48.0451 5.40704C48.2933 5.65391 48.4328 5.98874 48.4328 6.33787C48.4328 6.687 48.2933 7.02183 48.0451 7.2687C47.7968 7.51557 47.4601 7.65426 47.1091 7.65426Z" fill="#E6E6E6"/>
<path d="M93.9689 7.52257C94.6269 7.52257 95.1603 6.99214 95.1603 6.33782C95.1603 5.68351 94.6269 5.15308 93.9689 5.15308C93.311 5.15308 92.7776 5.68351 92.7776 6.33782C92.7776 6.99214 93.311 7.52257 93.9689 7.52257Z" fill="#E6E6E6"/>
<path d="M97.6755 7.52257C98.3335 7.52257 98.8668 6.99214 98.8668 6.33782C98.8668 5.68351 98.3335 5.15308 97.6755 5.15308C97.0175 5.15308 96.4841 5.68351 96.4841 6.33782C96.4841 6.99214 97.0175 7.52257 97.6755 7.52257Z" fill="#E6E6E6"/>
<path d="M101.382 7.52257C102.04 7.52257 102.573 6.99214 102.573 6.33782C102.573 5.68351 102.04 5.15308 101.382 5.15308C100.724 5.15308 100.191 5.68351 100.191 6.33782C100.191 6.99214 100.724 7.52257 101.382 7.52257Z" fill="#E6E6E6"/>
<path d="M55.4486 51.7532C57.2031 51.7532 58.6255 50.3387 58.6255 48.5939C58.6255 46.849 57.2031 45.4346 55.4486 45.4346C53.694 45.4346 52.2716 46.849 52.2716 48.5939C52.2716 50.3387 53.694 51.7532 55.4486 51.7532Z" fill="#CCCCCC"/>
<path d="M78.4814 131.79C80.236 131.79 81.6583 130.375 81.6583 128.63C81.6583 126.885 80.236 125.471 78.4814 125.471C76.7268 125.471 75.3044 126.885 75.3044 128.63C75.3044 130.375 76.7268 131.79 78.4814 131.79Z" fill="#CCCCCC"/>
<path d="M52.6105 91.7601H43.4152C42.1424 91.7587 40.9221 91.2552 40.0221 90.3602C39.1221 89.4651 38.6158 88.2516 38.6144 86.9859V77.8416C38.6158 76.5758 39.1221 75.3623 40.0221 74.4673C40.9221 73.5723 42.1424 73.0688 43.4152 73.0674H52.6105C53.8833 73.0688 55.1036 73.5723 56.0036 74.4673C56.9036 75.3623 57.4099 76.5758 57.4113 77.8416V86.9859C57.4099 88.2516 56.9036 89.4651 56.0036 90.3602C55.1036 91.2552 53.8833 91.7587 52.6105 91.7601ZM43.4152 73.5939C42.2828 73.5952 41.1971 74.0432 40.3964 74.8395C39.5956 75.6358 39.1452 76.7154 39.1439 77.8416V86.9859C39.1451 88.112 39.5956 89.1917 40.3963 89.988C41.1971 90.7843 42.2828 91.2323 43.4152 91.2335H52.6105C53.7429 91.2323 54.8286 90.7843 55.6294 89.988C56.4301 89.1917 56.8806 88.112 56.8818 86.9859V77.8416C56.8805 76.7154 56.4301 75.6358 55.6293 74.8395C54.8286 74.0432 53.7429 73.5952 52.6105 73.5939L43.4152 73.5939Z" fill="#E6E6E6"/>
<path d="M75.2462 91.8917H66.051C64.7781 91.8902 63.5579 91.3868 62.6578 90.4918C61.7578 89.5967 61.2516 88.3832 61.2501 87.1175V77.9732C61.2516 76.7074 61.7578 75.4939 62.6578 74.5989C63.5579 73.7039 64.7781 73.2004 66.051 73.199H75.2462C76.519 73.2004 77.7393 73.7039 78.6393 74.5989C79.5394 75.4939 80.0456 76.7074 80.0471 77.9732V87.1175C80.0456 88.3832 79.5394 89.5967 78.6393 90.4918C77.7393 91.3868 76.519 91.8903 75.2462 91.8917ZM66.051 73.7255C64.9185 73.7268 63.8328 74.1748 63.0321 74.9711C62.2313 75.7674 61.7809 76.847 61.7796 77.9732V87.1175C61.7809 88.2436 62.2313 89.3233 63.0321 90.1196C63.8328 90.9159 64.9185 91.3638 66.051 91.3651H75.2462C76.3787 91.3638 77.4643 90.9159 78.2651 90.1196C79.0659 89.3233 79.5163 88.2436 79.5176 87.1175V77.9732C79.5163 76.847 79.0658 75.7674 78.2651 74.9711C77.4643 74.1748 76.3787 73.7268 75.2462 73.7255L66.051 73.7255Z" fill="#E6E6E6"/>
<path d="M97.882 92.0233H88.6867C87.4139 92.0218 86.1936 91.5184 85.2936 90.6234C84.3936 89.7283 83.8873 88.5148 83.8859 87.2491V78.1048C83.8873 76.839 84.3936 75.6255 85.2936 74.7305C86.1936 73.8355 87.4139 73.332 88.6867 73.3306H97.882C99.1548 73.332 100.375 73.8355 101.275 74.7305C102.175 75.6255 102.681 76.839 102.683 78.1048V87.249C102.681 88.5148 102.175 89.7283 101.275 90.6234C100.375 91.5184 99.1548 92.0218 97.882 92.0233ZM88.6867 73.8571C87.5543 73.8584 86.4686 74.3064 85.6678 75.1027C84.8671 75.899 84.4167 76.9786 84.4154 78.1048V87.249C84.4166 88.3752 84.8671 89.4549 85.6678 90.2512C86.4686 91.0475 87.5543 91.4954 88.6867 91.4967H97.882C99.0144 91.4955 100.1 91.0475 100.901 90.2512C101.702 89.4549 102.152 88.3752 102.153 87.249V78.1048C102.152 76.9786 101.702 75.899 100.901 75.1026C100.1 74.3063 99.0144 73.8584 97.882 73.8571L88.6867 73.8571Z" fill="#E6E6E6"/>
<path d="M78.4814 78.3443C80.236 78.3443 81.6583 76.9298 81.6583 75.185C81.6583 73.4401 80.236 72.0256 78.4814 72.0256C76.7268 72.0256 75.3044 73.4401 75.3044 75.185C75.3044 76.9298 76.7268 78.3443 78.4814 78.3443Z" fill="#CCCCCC"/>
</g>
<defs>
<clipPath id="clip0_36_277">
<rect width="190" height="157" fill="white"/>
</clipPath>
</defs>
</svg>
