<svg width="300" height="212" viewBox="0 0 300 212" fill="none" xmlns="http://www.w3.org/2000/svg">
<g clip-path="url(#clip0_128_16)">
<path d="M298.573 69.2047C294.434 83.5468 282.351 93.5864 269.746 102.115C267.986 103.306 266.226 104.47 264.465 105.606C264.453 105.611 264.441 105.622 264.429 105.628C264.344 105.682 264.259 105.736 264.18 105.791C263.817 106.025 263.453 106.259 263.093 106.491L263.291 106.58C263.291 106.58 263.485 106.683 263.272 106.596C263.209 106.57 263.143 106.546 263.079 106.519C255.757 103.569 248.305 100.401 242.693 94.8744C236.872 89.1351 233.47 80.1332 236.622 72.5934C237.036 71.6058 237.56 70.6674 238.182 69.7957C238.438 69.4302 238.713 69.0804 239 68.7371C240.739 66.6171 243.011 64.998 245.584 64.0463C248.157 63.0947 250.937 62.8447 253.638 63.3222C256.34 63.7997 258.865 64.9873 260.955 66.7631C263.045 68.5388 264.623 70.8386 265.528 73.4258C266.454 64.8125 259.345 57.5974 252.503 52.2739C245.658 46.953 237.88 41.1584 236.557 32.5928C235.818 27.8271 237.477 23.2086 240.499 19.501C240.593 19.3884 240.686 19.2759 240.782 19.1663C244.461 14.8481 249.635 12.0752 255.27 11.4015C265.766 10.3118 275.961 15.8618 283.586 23.152C295.858 34.8814 303.277 52.8978 298.573 69.2047Z" fill="#F2F2F2"/>
<path d="M278.844 50.4454C280.859 53.5762 282.405 56.9838 283.435 60.5605C284.306 63.7573 284.694 67.0663 284.585 70.3776C284.397 77.184 282.3 83.8351 279.002 89.7591C276.45 94.2508 273.34 98.4023 269.746 102.115C267.986 103.306 266.226 104.47 264.465 105.606C264.453 105.611 264.441 105.622 264.429 105.628C264.344 105.682 264.259 105.736 264.18 105.791C263.817 106.025 263.453 106.259 263.093 106.491C263.093 106.491 263.485 106.683 263.272 106.596C263.209 106.57 263.143 106.546 263.079 106.519C263.736 101.144 263.093 95.69 261.205 90.6141C259.316 85.5382 256.238 80.9883 252.227 77.3458C248.206 73.7588 243.394 71.1718 238.182 69.7957C238.438 69.4302 238.713 69.0804 239 68.7371C241.013 69.3009 242.972 70.0415 244.854 70.9501C251.583 74.1779 257.092 79.4842 260.566 86.0835C263.685 92.0759 265.027 98.8327 264.435 105.56C264.736 105.288 265.037 105.01 265.329 104.734C270.893 99.5517 275.835 93.6031 279.18 86.7379C282.082 80.9241 283.508 74.4866 283.333 67.9925C283.06 60.9114 280.236 54.3524 276.147 48.6425C271.767 42.5315 266.275 37.1249 260.411 32.4412C254.405 27.6352 247.832 23.5816 240.84 20.3706C240.683 20.2971 240.559 20.1658 240.496 20.004C240.432 19.8421 240.433 19.6621 240.499 19.5011C240.546 19.3566 240.647 19.2363 240.782 19.1664C240.852 19.1365 240.927 19.1226 241.002 19.1258C241.078 19.129 241.152 19.1492 241.218 19.1849C242.082 19.5819 242.939 19.9843 243.789 20.4042C250.873 23.9017 257.493 28.2647 263.5 33.393C269.301 38.3344 274.763 43.9799 278.844 50.4454Z" fill="white"/>
<path d="M231.036 151.325C239.513 151.325 246.385 144.46 246.385 135.992C246.385 127.523 239.513 120.658 231.036 120.658C222.559 120.658 215.687 127.523 215.687 135.992C215.687 144.46 222.559 151.325 231.036 151.325Z" fill="#323E40"/>
<path d="M219.055 127.724C221.536 125.246 222.038 121.731 220.178 119.872C218.318 118.014 214.799 118.516 212.318 120.994C209.838 123.472 209.335 126.987 211.196 128.846C213.056 130.704 216.575 130.202 219.055 127.724Z" fill="#323E40"/>
<path d="M247.034 122.854C248.067 120.438 246.29 117.362 243.064 115.986C239.838 114.609 236.386 115.453 235.352 117.869C234.319 120.286 236.096 123.362 239.322 124.738C242.548 126.115 246 125.271 247.034 122.854Z" fill="#323E40"/>
<path d="M263.542 201.83C260.904 203.66 258.117 205.266 255.21 206.629L254.781 205.87L250.667 198.657L250.307 198.024L248.202 194.334L248.198 194.33L241.554 182.669L238.139 176.682L248.28 169.577L252.225 177.909L254.364 182.435L263.169 201.037L263.542 201.83Z" fill="#A0616A"/>
<path d="M254.481 173.695L253.21 171.705L247.586 162.892C246.818 161.18 245.402 159.841 243.648 159.17C241.895 158.498 239.946 158.549 238.229 159.31C236.512 160.071 235.168 161.481 234.49 163.23C233.811 164.98 233.855 166.927 234.611 168.645L238.087 181.017C238.185 181.367 238.357 181.692 238.591 181.97C238.825 182.249 239.116 182.473 239.445 182.63C239.773 182.786 240.131 182.871 240.495 182.877C240.859 182.884 241.22 182.813 241.554 182.669C241.567 182.664 241.576 182.66 241.589 182.656L252.225 177.909L253.37 177.397C253.705 177.247 254.003 177.026 254.245 176.75C254.486 176.475 254.666 176.15 254.771 175.799C254.877 175.448 254.905 175.079 254.855 174.716C254.805 174.353 254.678 174.004 254.481 173.695H254.481Z" fill="#F2A922"/>
<path d="M223.923 173.972L220.964 180.648L220.321 182.101L209.364 206.828L209.013 207.622C206.046 206.386 203.189 204.9 200.473 203.182L200.768 202.35L209.711 177.141L211.907 170.951L216.715 172.16L223.923 173.972Z" fill="#A0616A"/>
<path d="M242.953 145.894C246.404 139.588 244.084 131.681 237.771 128.233C231.458 124.786 223.543 127.103 220.092 133.41C216.642 139.716 218.962 147.624 225.274 151.071C231.587 154.519 239.502 152.201 242.953 145.894Z" fill="#A0616A"/>
<path d="M254.229 176.769C254.041 175.054 253.7 173.359 253.21 171.705C251.733 166.725 248.908 162.249 245.047 158.769C243.629 157.497 241.789 156.795 239.883 156.797H221.532C220.213 156.793 218.915 157.128 217.762 157.768C216.61 158.408 215.64 159.333 214.947 160.453C214.254 161.574 213.86 162.854 213.802 164.17C213.745 165.487 214.026 166.796 214.619 167.973L216.715 172.16L220.964 180.648L221.983 182.682L226.527 191.764L226.887 192.483L249.951 198.821L250.051 198.6C250.138 198.405 250.224 198.214 250.307 198.024C250.432 197.733 250.558 197.451 250.676 197.165C253.002 191.655 254.099 186.752 254.364 182.435C254.483 180.546 254.438 178.65 254.229 176.769Z" fill="#F2A922"/>
<path d="M224.86 159.172C223.163 158.378 221.219 158.288 219.455 158.921C217.691 159.555 216.251 160.861 215.448 162.554L213.812 165.02L208.345 173.266C208.142 173.572 208.007 173.918 207.95 174.28C207.893 174.643 207.915 175.013 208.014 175.367C208.114 175.72 208.288 176.048 208.525 176.328C208.763 176.608 209.058 176.834 209.39 176.99L209.711 177.141L220.321 182.101L221.076 182.452C221.361 182.586 221.669 182.664 221.983 182.682C222.403 182.715 222.824 182.642 223.207 182.469C223.542 182.32 223.84 182.1 224.082 181.824C224.324 181.549 224.504 181.225 224.609 180.874L228.28 168.601C229.076 166.898 229.164 164.948 228.523 163.18C227.881 161.412 226.564 159.971 224.86 159.172Z" fill="#F2A922"/>
<path d="M250.675 197.165C250.598 196.895 250.473 196.641 250.307 196.415C249.713 195.62 249.004 194.919 248.202 194.334L248.198 194.33C245.408 192.219 239.853 189.752 229.139 189.687H229.122C228.63 189.687 228.15 189.828 227.736 190.093C227.323 190.358 226.995 190.736 226.791 191.183L226.527 191.764L224.821 195.509C224.677 195.832 224.447 196.109 224.157 196.311C222.617 197.399 217.713 201.344 215.179 208.879C215.088 209.147 215.001 209.421 214.919 209.702C225.754 212.865 237.283 212.761 248.059 209.403L248.297 208.419L250.667 198.657L250.706 198.496C250.813 198.058 250.803 197.598 250.675 197.165Z" fill="#323E40"/>
<path d="M217.835 131.467C220.812 133.516 224.345 134.607 227.96 134.593C226.67 135.486 225.202 136.089 223.657 136.361C228.464 137.391 233.431 137.419 238.25 136.443C239.321 136.272 240.354 135.917 241.304 135.395C241.778 135.131 242.191 134.77 242.516 134.336C242.84 133.902 243.07 133.404 243.19 132.876C243.51 131.048 242.085 129.388 240.604 128.27C238.336 126.583 235.722 125.421 232.949 124.867C230.177 124.314 227.316 124.383 224.573 125.069C222.783 125.532 220.989 126.313 219.826 127.75C218.663 129.186 218.318 131.401 219.426 132.881L217.835 131.467Z" fill="#323E40"/>
<path d="M235.805 13.2132H0.471313V14.1554H235.805V13.2132Z" fill="#3F3D56"/>
<path d="M8.4886 9.89632C10.0514 9.89632 11.3183 8.6307 11.3183 7.06947C11.3183 5.50824 10.0514 4.24261 8.4886 4.24261C6.92582 4.24261 5.65894 5.50824 5.65894 7.06947C5.65894 8.6307 6.92582 9.89632 8.4886 9.89632Z" fill="#3F3D56"/>
<path d="M16.624 9.89632C18.1868 9.89632 19.4536 8.6307 19.4536 7.06947C19.4536 5.50824 18.1868 4.24261 16.624 4.24261C15.0612 4.24261 13.7943 5.50824 13.7943 7.06947C13.7943 8.6307 15.0612 9.89632 16.624 9.89632Z" fill="#3F3D56"/>
<path d="M24.7592 9.89632C26.322 9.89632 27.5889 8.6307 27.5889 7.06947C27.5889 5.50824 26.322 4.24261 24.7592 4.24261C23.1965 4.24261 21.9296 5.50824 21.9296 7.06947C21.9296 8.6307 23.1965 9.89632 24.7592 9.89632Z" fill="#3F3D56"/>
<path d="M184.838 67.8974H51.2713C50.8738 67.8974 50.4802 67.8192 50.1129 67.6672C49.7456 67.5152 49.4119 67.2925 49.1309 67.0117C48.8498 66.7309 48.6268 66.3975 48.4747 66.0306C48.3226 65.6637 48.2443 65.2705 48.2443 64.8734C48.2443 64.4763 48.3226 64.083 48.4747 63.7162C48.6268 63.3493 48.8498 63.0159 49.1309 62.7351C49.4119 62.4543 49.7456 62.2315 50.1129 62.0796C50.4802 61.9276 50.8738 61.8494 51.2713 61.8494H184.838C185.236 61.8494 185.629 61.9276 185.997 62.0796C186.364 62.2315 186.698 62.4543 186.979 62.7351C187.26 63.0159 187.483 63.3493 187.635 63.7162C187.787 64.083 187.865 64.4763 187.865 64.8734C187.865 65.2705 187.787 65.6637 187.635 66.0306C187.483 66.3975 187.26 66.7309 186.979 67.0117C186.698 67.2925 186.364 67.5152 185.997 67.6672C185.629 67.8192 185.236 67.8974 184.838 67.8974Z" fill="#CCCCCC"/>
<path d="M184.838 100.405H51.2713C50.8738 100.405 50.4802 100.327 50.1129 100.175C49.7456 100.023 49.4119 99.8006 49.1309 99.5198C48.8498 99.239 48.6268 98.9056 48.4747 98.5387C48.3226 98.1718 48.2443 97.7786 48.2443 97.3815C48.2443 96.9843 48.3226 96.5911 48.4747 96.2242C48.6268 95.8573 48.8498 95.524 49.1309 95.2432C49.4119 94.9624 49.7456 94.7396 50.1129 94.5876C50.4802 94.4357 50.8738 94.3575 51.2713 94.3575H184.838C185.236 94.3575 185.629 94.4357 185.997 94.5876C186.364 94.7396 186.698 94.9624 186.979 95.2432C187.26 95.524 187.483 95.8573 187.635 96.2242C187.787 96.5911 187.865 96.9843 187.865 97.3815C187.865 97.7786 187.787 98.1718 187.635 98.5387C187.483 98.9056 187.26 99.239 186.979 99.5198C186.698 99.8006 186.364 100.023 185.997 100.175C185.629 100.327 185.236 100.405 184.838 100.405Z" fill="#E6E6E6"/>
<path d="M184.838 112.879H51.2713C50.4685 112.879 49.6985 112.561 49.1309 111.994C48.5632 111.427 48.2443 110.658 48.2443 109.855C48.2443 109.053 48.5632 108.284 49.1309 107.717C49.6985 107.15 50.4685 106.831 51.2713 106.831H184.838C185.641 106.831 186.411 107.15 186.979 107.717C187.546 108.284 187.865 109.053 187.865 109.855C187.865 110.658 187.546 111.427 186.979 111.994C186.411 112.561 185.641 112.879 184.838 112.879Z" fill="#E6E6E6"/>
<path d="M163.082 55.0454H73.028C72.2252 55.0454 71.4552 54.7268 70.8876 54.1597C70.3199 53.5925 70.001 52.8234 70.001 52.0214C70.001 51.2193 70.3199 50.4502 70.8876 49.8831C71.4552 49.316 72.2252 48.9974 73.028 48.9974H163.082C163.884 48.9974 164.654 49.316 165.222 49.8831C165.79 50.4502 166.109 51.2193 166.109 52.0214C166.109 52.8234 165.79 53.5925 165.222 54.1597C164.654 54.7268 163.884 55.0454 163.082 55.0454Z" fill="#CCCCCC"/>
<path d="M98.3599 87.9314H51.4412C51.0433 87.9319 50.6493 87.854 50.2817 87.7023C49.914 87.5505 49.5799 87.3279 49.2984 87.047C49.0169 86.7661 48.7936 86.4326 48.6413 86.0655C48.4889 85.6984 48.4105 85.3049 48.4105 84.9074C48.4105 84.51 48.4889 84.1165 48.6413 83.7494C48.7936 83.3822 49.0169 83.0487 49.2984 82.7679C49.5799 82.487 49.914 82.2643 50.2817 82.1126C50.6493 81.9608 51.0433 81.8829 51.4412 81.8834H98.3599C99.1627 81.8834 99.9326 82.202 100.5 82.7691C101.068 83.3363 101.387 84.1054 101.387 84.9074C101.387 85.7094 101.068 86.4786 100.5 87.0457C99.9326 87.6128 99.1627 87.9314 98.3599 87.9314Z" fill="#E6E6E6"/>
<path d="M185.008 87.9314H138.089C137.692 87.9319 137.298 87.854 136.93 87.7023C136.562 87.5505 136.228 87.3279 135.947 87.047C135.665 86.7661 135.442 86.4326 135.289 86.0655C135.137 85.6984 135.059 85.3049 135.059 84.9074C135.059 84.51 135.137 84.1165 135.289 83.7494C135.442 83.3822 135.665 83.0487 135.947 82.7679C136.228 82.487 136.562 82.2643 136.93 82.1126C137.298 81.9608 137.692 81.8829 138.089 81.8834H185.008C185.406 81.8829 185.8 81.9608 186.168 82.1126C186.535 82.2643 186.869 82.487 187.151 82.7679C187.432 83.0487 187.656 83.3822 187.808 83.7494C187.96 84.1165 188.039 84.51 188.039 84.9074C188.039 85.3049 187.96 85.6984 187.808 86.0655C187.656 86.4326 187.432 86.7661 187.151 87.047C186.869 87.3279 186.535 87.5505 186.168 87.7023C185.8 87.854 185.406 87.9319 185.008 87.9314Z" fill="#E6E6E6"/>
<path d="M232.975 -1.90735e-05H3.29801C2.42298 0.00131079 1.58424 0.349451 0.965909 0.967973C0.347577 1.58649 0.000192117 2.42485 0 3.299V158.778C0.00110236 159.651 0.348921 160.489 0.96718 161.106C1.58544 161.724 2.42366 162.071 3.29801 162.073H175.048C175.005 161.76 174.97 161.444 174.935 161.132H3.29801C2.67324 161.131 2.07422 160.883 1.63244 160.442C1.19065 160 0.942196 159.402 0.941621 158.778V3.299C0.942028 2.6744 1.19029 2.07544 1.63199 1.63339C2.07368 1.19133 2.67279 0.942236 3.29801 0.9407H232.975C233.601 0.941353 234.201 1.19002 234.643 1.63215C235.086 2.07428 235.335 2.67374 235.336 3.299V98.5891C235.648 98.6108 235.965 98.6368 236.277 98.6671V3.299C236.277 2.42416 235.929 1.58527 235.31 0.966676C234.69 0.348081 233.851 0.000382971 232.975 -1.90735e-05Z" fill="#3F3D56"/>
<path d="M175.048 162.073C175.005 161.76 174.97 161.444 174.935 161.132C174.926 161.084 174.922 161.041 174.918 160.993C174.792 159.853 174.701 158.701 174.644 157.538C174.406 158.539 174.19 159.545 173.998 160.555C174.011 160.703 174.024 160.846 174.041 160.993C174.046 161.041 174.05 161.084 174.059 161.132C174.093 161.444 174.128 161.76 174.172 162.073C174.293 163.039 174.441 163.993 174.614 164.942C174.618 164.903 174.623 164.869 174.627 164.83C174.749 163.915 174.887 163.005 175.052 162.094C175.049 162.088 175.047 162.08 175.048 162.073ZM236.277 97.7958C235.965 97.7655 235.648 97.7395 235.336 97.7178C235.288 97.7134 235.244 97.7134 235.197 97.7091C233.808 97.6051 232.402 97.5531 230.987 97.5531C222.978 97.5555 215.058 99.2355 207.739 102.485C200.42 105.734 193.863 110.479 188.493 116.416C183.123 122.353 179.059 129.348 176.562 136.951C174.065 144.553 173.192 152.594 173.998 160.555C174.011 160.703 174.024 160.846 174.041 160.993C174.046 161.041 174.05 161.084 174.059 161.132C174.093 161.444 174.128 161.76 174.171 162.073C174.293 163.039 174.441 163.993 174.614 164.942C176.338 174.355 180.387 183.188 186.394 190.641C192.401 198.094 200.176 203.931 209.013 207.622C209.915 207.994 210.826 208.35 211.751 208.675C212.358 208.896 212.966 209.1 213.582 209.295C214.025 209.438 214.472 209.572 214.919 209.702C215.552 209.889 216.194 210.067 216.841 210.231C224.773 212.264 233.049 212.566 241.108 211.116C249.167 209.666 256.818 206.499 263.542 201.83H263.546C271.171 196.571 277.404 189.541 281.71 181.346C286.016 173.15 288.266 164.033 288.268 154.777C288.268 125.003 265.391 100.471 236.277 97.7958ZM263.169 201.036C260.517 202.886 257.711 204.503 254.781 205.87C252.675 206.855 250.51 207.706 248.297 208.419C238.315 211.628 227.635 211.999 217.453 209.49C216.689 209.304 215.931 209.1 215.179 208.879C214.437 208.662 213.702 208.432 212.975 208.189C212.38 207.986 211.785 207.778 211.195 207.557C210.579 207.322 209.972 207.08 209.364 206.828C200.226 203.024 192.248 196.89 186.227 189.04C180.206 181.19 176.352 171.898 175.052 162.094C175.049 162.088 175.047 162.08 175.048 162.073C175.005 161.76 174.97 161.444 174.935 161.132C174.926 161.084 174.922 161.041 174.918 160.993C174.792 159.853 174.701 158.701 174.644 157.538C174.597 156.623 174.574 155.703 174.575 154.777C174.591 139.835 180.54 125.51 191.116 114.945C201.692 104.379 216.031 98.4364 230.987 98.4201C232.402 98.4201 233.808 98.4721 235.197 98.5761C235.244 98.5805 235.288 98.5848 235.336 98.5891C235.648 98.6108 235.965 98.6368 236.277 98.6672C264.913 101.338 287.4 125.48 287.4 154.777C287.399 163.869 285.194 172.825 280.974 180.881C276.755 188.937 270.645 195.852 263.169 201.036ZM211.195 207.557C210.579 207.322 209.972 207.08 209.364 206.828C200.226 203.024 192.248 196.89 186.227 189.04C180.206 181.19 176.352 171.898 175.052 162.094C174.887 163.005 174.749 163.915 174.627 164.83C174.623 164.869 174.618 164.903 174.614 164.942C176.338 174.355 180.387 183.188 186.394 190.641C192.401 198.094 200.176 203.931 209.013 207.622C209.915 207.994 210.826 208.35 211.751 208.675C211.56 208.306 211.373 207.934 211.195 207.557ZM235.197 97.7091C233.808 97.6051 232.402 97.5531 230.987 97.5531C222.978 97.5555 215.058 99.2355 207.739 102.485C200.42 105.734 193.863 110.479 188.493 116.416C183.123 122.353 179.059 129.348 176.562 136.951C174.065 144.553 173.192 152.594 173.998 160.555C174.011 160.703 174.024 160.846 174.041 160.993C174.046 161.041 174.05 161.084 174.059 161.132H174.935C174.926 161.084 174.922 161.041 174.918 160.993C174.792 159.853 174.701 158.701 174.644 157.538C174.597 156.623 174.574 155.703 174.575 154.777C174.591 139.835 180.54 125.51 191.116 114.945C201.692 104.379 216.031 98.4364 230.987 98.4201C232.402 98.4201 233.808 98.4721 235.197 98.5761C235.244 98.5805 235.288 98.5848 235.336 98.5891V97.7178C235.288 97.7134 235.244 97.7134 235.197 97.7091H235.197Z" fill="#3F3D56"/>
<path d="M277.547 112.2C295.141 112.5 295.138 138.645 277.547 138.942C259.953 138.642 259.956 112.498 277.547 112.2Z" fill="#F2A922"/>
<path d="M277.547 132.852C277.298 132.851 277.059 132.752 276.883 132.576C276.706 132.4 276.607 132.161 276.607 131.912V126.93C276.607 126.819 276.562 126.712 276.484 126.634C276.405 126.555 276.299 126.511 276.188 126.511H271.2C270.951 126.511 270.711 126.412 270.535 126.235C270.359 126.059 270.26 125.82 270.26 125.571C270.26 125.322 270.359 125.083 270.535 124.906C270.711 124.73 270.951 124.631 271.2 124.631H276.188C276.299 124.631 276.405 124.587 276.484 124.508C276.562 124.43 276.607 124.323 276.607 124.212V119.23C276.607 118.981 276.706 118.742 276.882 118.565C277.059 118.389 277.298 118.29 277.547 118.29C277.797 118.29 278.036 118.389 278.212 118.565C278.389 118.742 278.488 118.981 278.488 119.23V124.212C278.488 124.323 278.532 124.43 278.611 124.508C278.689 124.587 278.796 124.631 278.907 124.631H283.894C284.144 124.631 284.383 124.73 284.559 124.906C284.736 125.083 284.835 125.322 284.835 125.571C284.835 125.82 284.736 126.059 284.559 126.235C284.383 126.412 284.144 126.511 283.894 126.511H278.907C278.796 126.511 278.689 126.555 278.611 126.634C278.532 126.712 278.488 126.819 278.488 126.93V131.912C278.488 132.161 278.388 132.4 278.212 132.576C278.036 132.752 277.797 132.851 277.547 132.852Z" fill="white"/>
</g>
<defs>
<clipPath id="clip0_128_16">
<rect width="300" height="212" fill="white"/>
</clipPath>
</defs>
</svg>