<svg width="153" height="153" viewBox="0 0 153 153" fill="none" xmlns="http://www.w3.org/2000/svg">
<path fill-rule="evenodd" clip-rule="evenodd" d="M102 57.375C102 64.138 99.3134 70.624 94.5312 75.4062C89.749 80.1884 83.263 82.875 76.5 82.875C69.737 82.875 63.251 80.1884 58.4688 75.4062C53.6866 70.624 51 64.138 51 57.375C51 50.612 53.6866 44.126 58.4688 39.3438C63.251 34.5616 69.737 31.875 76.5 31.875C83.263 31.875 89.749 34.5616 94.5312 39.3438C99.3134 44.126 102 50.612 102 57.375V57.375ZM89.25 57.375C89.25 60.7565 87.9067 63.9995 85.5156 66.3906C83.1245 68.7817 79.8815 70.125 76.5 70.125C73.1185 70.125 69.8755 68.7817 67.4844 66.3906C65.0933 63.9995 63.75 60.7565 63.75 57.375C63.75 53.9935 65.0933 50.7505 67.4844 48.3594C69.8755 45.9683 73.1185 44.625 76.5 44.625C79.8815 44.625 83.1245 45.9683 85.5156 48.3594C87.9067 50.7505 89.25 53.9935 89.25 57.375V57.375Z" fill="black"/>
<path fill-rule="evenodd" clip-rule="evenodd" d="M76.5 6.375C37.7719 6.375 6.375 37.7719 6.375 76.5C6.375 115.228 37.7719 146.625 76.5 146.625C115.228 146.625 146.625 115.228 146.625 76.5C146.625 37.7719 115.228 6.375 76.5 6.375ZM19.125 76.5C19.125 89.8237 23.6704 102.089 31.2885 111.83C36.6386 104.804 43.5406 99.1105 51.4554 95.1935C59.3702 91.2765 68.0834 89.2423 76.9144 89.25C85.6311 89.2417 94.2347 91.2232 102.07 95.0435C109.905 98.8638 116.764 104.422 122.126 111.295C127.649 104.05 131.369 95.5945 132.975 86.6273C134.582 77.66 134.031 68.439 131.366 59.7273C128.702 51.0155 124.002 43.0634 117.654 36.529C111.306 29.9945 103.493 25.0656 94.8624 22.15C86.2315 19.2344 77.0304 18.4159 68.0204 19.7623C59.0103 21.1087 50.4504 24.5813 43.0489 29.8927C35.6474 35.2041 29.617 42.2017 25.4568 50.3064C21.2966 58.4111 19.1262 67.3899 19.125 76.5V76.5ZM76.5 133.875C63.3289 133.895 50.5554 129.364 40.341 121.049C44.4524 115.163 49.9248 110.357 56.2925 107.041C62.6602 103.724 69.7348 101.995 76.9144 102C84.0044 101.994 90.9935 103.68 97.3012 106.918C103.609 110.155 109.053 114.851 113.182 120.615C102.888 129.2 89.904 133.894 76.5 133.875V133.875Z" fill="black"/>
</svg>
