<svg width="360" height="242" viewBox="0 0 360 242" fill="none" xmlns="http://www.w3.org/2000/svg">
<path opacity="0.1" d="M81.7558 70.206C81.7558 70.206 89.0746 78.7125 89.8864 81.5494C90.6982 84.3863 99.6616 91.6651 99.6616 91.6651C99.6616 91.6651 93.1546 96.5259 94.3744 98.9564C95.5942 101.387 85.8358 90.8563 85.8358 90.8563L74.4244 74.2581L81.7558 70.206Z" fill="#FFBA3127"/>
<path d="M312.104 147.955C306.276 137.232 298.016 128.013 287.982 121.031C287.264 120.538 286.437 120.227 285.571 120.126C286.753 112.382 286.505 103.826 282.118 97.3724C271.708 82.0607 218.668 97.8627 218.668 97.8627C181.489 85.0233 149.265 101.32 149.265 101.32C149.265 101.32 108.12 94.9001 89.2849 99.8406C80.4014 102.17 78.2436 111.197 78.4455 120.089H78.4161C77.6285 120.087 76.8507 120.263 76.1407 120.602C75.4306 120.942 74.8066 121.437 74.315 122.05C69.3055 128.285 54.1716 147.49 54.5838 151.198C55.0801 155.644 71.438 213.421 70.6977 241.325L299.216 238.811C299.216 238.811 303.002 182.66 312.47 151.923C312.88 150.604 312.749 149.177 312.104 147.955Z" fill="#3F3D56"/>
<path opacity="0.1" d="M73.6757 151.45L83.0933 132.681L91.022 169.225L91.1146 186.188L73.6757 151.45Z" fill="black"/>
<path opacity="0.1" d="M289.799 151.45L280.381 132.681L269.458 167.331L271.561 187.026L289.799 151.45Z" fill="black"/>
<path d="M90.3323 168.228L269.474 167.252L271.46 187.005L91.0221 186.511L90.3323 168.228Z" fill="#3F3D56"/>
<path opacity="0.1" d="M90.3323 168.228L269.474 167.252L271.46 187.005L91.0221 186.511L90.3323 168.228Z" fill="black"/>
<path opacity="0.1" d="M267.998 185.082H94.6773C92.2451 185.082 90.2734 187.046 90.2734 189.469V201.931C90.2734 204.354 92.2451 206.319 94.6773 206.319H267.998C270.43 206.319 272.402 204.354 272.402 201.931V189.469C272.402 187.046 270.43 185.082 267.998 185.082Z" fill="white"/>
<path d="M235.131 114.038C235.131 114.038 234.525 113.2 233.81 113.652C233.469 113.874 231.867 115.886 230.294 117.931C229.52 118.932 228.75 119.942 228.14 120.746C227.387 121.735 226.878 122.423 226.878 122.423L226.575 122.988L224.737 126.412L223.008 129.63L222.588 131.147L228.426 133.125L235.072 131.319L234.786 130.091L234.735 129.882L234.79 127.057L234.941 119.095L235.013 115.513V115.094L235.131 114.038Z" fill="#FFE09C"/>
<path d="M221.763 133.665C221.763 133.665 228.073 135.907 231.307 134.734C231.307 134.734 234.104 133.846 235.206 132.987C235.206 132.987 236.38 132.375 234.786 130.38C234.786 130.38 230.702 132.874 226.836 131.893L222.971 130.908L221.763 133.665Z" fill="#E7C4C3"/>
<path d="M228.801 130.829C229.785 130.254 230.187 129.115 229.698 128.285C229.21 127.454 228.016 127.246 227.032 127.821C226.048 128.395 225.646 129.535 226.134 130.365C226.623 131.196 227.817 131.403 228.801 130.829Z" fill="#FF7F8E"/>
<path d="M232.997 125.817C233.981 125.243 234.382 124.104 233.894 123.273C233.405 122.443 232.211 122.235 231.227 122.809C230.243 123.384 229.842 124.523 230.33 125.354C230.819 126.184 232.013 126.392 232.997 125.817Z" fill="#FF7F8E"/>
<path d="M234.786 127.057C234.469 126.925 234.125 126.871 233.783 126.898C233.44 126.925 233.109 127.033 232.817 127.212C231.833 127.786 231.429 128.926 231.921 129.756C232.413 130.586 233.604 130.795 234.584 130.221C234.651 130.179 234.718 130.137 234.782 130.091L234.731 129.882L234.786 127.057Z" fill="#FF7F8E"/>
<path d="M227.648 123.734C227.531 123.542 227.375 123.376 227.189 123.247C227.004 123.119 226.793 123.03 226.571 122.988L224.733 126.412C225.055 126.556 225.407 126.62 225.759 126.596C226.111 126.573 226.452 126.464 226.752 126.278C227.736 125.704 228.136 124.564 227.648 123.734Z" fill="#FF7F8E"/>
<path d="M231.736 118.718C231.584 118.476 231.373 118.277 231.122 118.139C230.871 118.001 230.589 117.929 230.302 117.931C229.528 118.932 228.758 119.942 228.148 120.746L228.174 120.797C228.662 121.635 229.856 121.832 230.84 121.258C231.825 120.684 232.216 119.548 231.736 118.718Z" fill="#FF7F8E"/>
<path d="M235.009 115.508C234.792 115.563 234.583 115.647 234.39 115.76C233.406 116.334 233.007 117.474 233.494 118.303C233.647 118.547 233.86 118.747 234.113 118.885C234.365 119.023 234.649 119.094 234.937 119.091L235.009 115.508Z" fill="#FF7F8E"/>
<path d="M225.212 129.249L224.876 128.683C225.38 128.533 225.845 128.276 226.239 127.929C226.264 127.904 226.285 127.874 226.306 127.849C226.727 127.321 226.638 128.419 226.638 128.419C226.638 128.419 225.604 129.295 225.212 129.249Z" fill="#94CC79"/>
<path d="M230.176 128.373L229.839 127.803C230.343 127.652 230.808 127.395 231.202 127.049C231.202 127.024 231.248 126.999 231.269 126.969C231.69 126.445 231.602 127.539 231.602 127.539C231.602 127.539 230.567 128.419 230.176 128.373Z" fill="#94CC79"/>
<path d="M229.722 126.026L229.385 125.457C229.888 125.307 230.353 125.051 230.748 124.706C230.769 124.677 230.794 124.652 230.815 124.627C231.236 124.099 231.147 125.193 231.147 125.193C231.147 125.193 230.113 126.064 229.722 126.026Z" fill="#94CC79"/>
<path d="M230.323 121.794L229.986 121.224C230.49 121.073 230.955 120.816 231.349 120.47C231.349 120.445 231.396 120.42 231.417 120.39C231.837 119.862 231.749 120.96 231.749 120.96C231.749 120.96 230.714 121.836 230.323 121.794Z" fill="#94CC79"/>
<path d="M233.171 116.673L232.838 116.104C233.341 115.953 233.804 115.696 234.197 115.349C234.221 115.325 234.244 115.298 234.264 115.27C234.685 114.746 234.601 115.84 234.601 115.84C234.601 115.84 233.562 116.715 233.171 116.673Z" fill="#94CC79"/>
<path d="M232.851 121.899L232.514 121.329C233.018 121.18 233.483 120.924 233.877 120.579C233.877 120.55 233.923 120.524 233.945 120.499C234.365 119.971 234.277 121.065 234.277 121.065C234.277 121.065 233.242 121.945 232.851 121.899Z" fill="#94CC79"/>
<path d="M220.729 131.893C220.729 131.893 219.921 133.988 221.763 133.653C222.583 132.706 223.144 131.564 223.391 130.338C223.391 130.338 227.374 121.643 228.552 120.847C228.552 120.847 233.743 113.778 234.302 113.673C234.302 113.673 234.483 112.986 232.67 114.44C230.857 115.894 226.886 121.492 226.886 121.492L223.101 127.64L222.209 130.091L220.729 131.893Z" fill="#E7C4C3"/>
<path opacity="0.2" d="M220.729 131.893C220.729 131.893 219.921 133.988 221.763 133.653C222.583 132.706 223.144 131.564 223.391 130.338C223.391 130.338 227.374 121.643 228.552 120.847C228.552 120.847 233.743 113.778 234.302 113.673C234.302 113.673 234.483 112.986 232.67 114.44C230.857 115.894 226.886 121.492 226.886 121.492L223.101 127.64L222.209 130.091L220.729 131.893Z" fill="white"/>
<path d="M158.161 174.455C158.856 176.727 159.71 178.948 160.719 181.101C163.615 180.497 166.464 179.688 169.245 178.679C169.333 178.649 167.651 176.458 167.474 176.278C166.789 175.523 165.972 174.899 165.064 174.434C164.176 174.048 163.083 174.342 162.119 174.392C160.807 174.459 159.488 174.48 158.161 174.455Z" fill="#FBBEBE"/>
<path d="M165.081 177.895C163.634 177.443 162.75 175.989 162.162 174.589C161.573 173.189 161.097 171.656 159.979 170.633C159.766 170.666 159.565 170.75 159.393 170.878C159.221 171.007 159.084 171.176 158.994 171.371C158.82 171.763 158.624 172.147 158.41 172.519C157.947 173.189 157.148 173.516 156.538 174.086C155.928 174.656 155.587 175.523 154.952 176.098C154.153 176.818 153.026 176.998 151.978 177.237C150.356 177.604 148.789 178.182 147.318 178.955C146.776 179.281 146.197 179.54 145.593 179.726C144.928 179.856 144.247 179.878 143.574 179.793L138.947 179.467C138.535 179.414 138.117 179.431 137.711 179.517C137.243 179.687 136.845 180.007 136.579 180.426C136.312 180.845 136.193 181.34 136.239 181.834C136.298 182.326 136.459 182.801 136.71 183.229C136.962 183.656 137.3 184.027 137.702 184.319C138.511 184.892 139.401 185.339 140.344 185.647C144.38 187.168 148.536 188.35 152.769 189.184V190.098C155.712 191.543 158.948 192.294 162.229 192.293C162.471 192.311 162.713 192.269 162.935 192.172C163.239 191.953 163.451 191.631 163.533 191.267C164.647 188.021 165.296 184.636 165.463 181.21C165.546 180.343 165.479 179.469 165.266 178.624C165.013 177.786 165.88 178.142 165.076 177.816" fill="#2F2E41"/>
<path d="M253.966 160.488C240.224 161.326 226.626 157.299 212.888 156.872C211.178 156.764 209.46 156.874 207.778 157.199C206.011 157.593 204.362 158.389 202.73 159.152C195.348 162.571 187.718 165.404 180.093 168.232L171.335 171.484C169.585 172.133 167.773 172.791 165.909 172.678C165.068 172.628 164.046 172.502 163.579 173.194C162.153 175.289 162.826 178.385 163.768 180.736C164.071 181.499 164.61 182.329 165.409 182.412C165.985 182.471 166.523 182.14 167.091 181.993C168.685 181.574 170.275 182.639 171.916 182.811C173.943 183.024 175.823 181.876 177.737 181.172C180.909 180.003 184.379 180.041 187.714 179.496C193.308 178.566 198.49 175.98 203.336 173.034C205.178 171.911 207.046 170.709 209.166 170.298C211.601 169.824 214.104 170.449 216.497 171.136C222.194 172.741 227.801 174.643 233.297 176.835C236.191 177.992 239.068 179.228 242.079 180.028C248.594 181.735 255.485 181.334 261.756 178.884C263.952 178.017 266.345 176.487 266.471 174.124C266.543 172.775 265.491 171.61 264.789 170.436C264.343 169.695 263.893 168.957 263.401 168.245C261.016 164.783 258.139 160.241 253.966 160.488Z" fill="#2F2E41"/>
<path opacity="0.1" d="M253.966 160.488C240.224 161.326 226.626 157.299 212.888 156.872C211.178 156.764 209.46 156.874 207.778 157.199C206.011 157.593 204.362 158.389 202.73 159.152C195.348 162.571 187.718 165.404 180.093 168.232L171.335 171.484C169.585 172.133 167.773 172.791 165.909 172.678C165.068 172.628 164.046 172.502 163.579 173.194C162.153 175.289 162.826 178.385 163.768 180.736C164.071 181.499 164.61 182.329 165.409 182.412C165.985 182.471 166.523 182.14 167.091 181.993C168.685 181.574 170.275 182.639 171.916 182.811C173.943 183.024 175.823 181.876 177.737 181.172C180.909 180.003 184.379 180.041 187.714 179.496C193.308 178.566 198.49 175.98 203.336 173.034C205.178 171.911 207.046 170.709 209.166 170.298C211.601 169.824 214.104 170.449 216.497 171.136C222.194 172.741 227.801 174.643 233.297 176.835C236.191 177.992 239.068 179.228 242.079 180.028C248.594 181.735 255.485 181.334 261.756 178.884C263.952 178.017 266.345 176.487 266.471 174.124C266.543 172.775 265.491 171.61 264.789 170.436C264.343 169.695 263.893 168.957 263.401 168.245C261.016 164.783 258.139 160.241 253.966 160.488Z" fill="black"/>
<path d="M184.543 175.121C186.691 175.85 188.861 176.522 191.054 177.137C192.278 175.134 194.57 173.738 195.092 171.45C195.114 171.4 195.125 171.345 195.124 171.29C195.123 171.235 195.11 171.181 195.087 171.131C195.063 171.081 195.03 171.037 194.988 171.001C194.946 170.965 194.897 170.938 194.844 170.922C193.277 170.058 191.537 169.55 189.75 169.435C188.337 169.347 187.693 170.813 187.05 171.848C186.793 172.263 185.119 175.318 184.543 175.121Z" fill="#FBBEBE"/>
<path d="M187.571 173.659C186.929 173.551 186.316 173.311 185.772 172.954C185.227 172.598 184.763 172.133 184.408 171.589C184.105 171.061 183.781 170.332 183.176 170.386C182.57 170.44 182.334 171.094 182.225 171.643C181.817 173.721 181.225 175.759 180.454 177.732C179.681 179.709 178.37 181.433 176.669 182.71C175.87 183.259 174.986 183.674 174.204 184.252C173.501 184.767 172.892 185.421 172.101 185.819C171.584 186.058 171.05 186.257 170.502 186.414C169.7 186.696 168.932 187.069 168.214 187.525C167.584 187.888 167.05 188.397 166.658 189.008C166.46 189.318 166.344 189.672 166.321 190.039C166.298 190.405 166.369 190.772 166.528 191.103C166.694 191.374 166.916 191.607 167.179 191.786C167.442 191.965 167.741 192.087 168.054 192.143C168.681 192.252 169.32 192.269 169.951 192.193C172.454 192.008 174.957 191.774 177.46 191.564C178.517 191.5 179.569 191.36 180.606 191.145C181.157 191.011 181.691 190.839 182.238 190.697C183.174 190.457 184.132 190.317 185.098 190.278C185.381 190.256 185.665 190.281 185.939 190.353C186.52 190.542 186.928 191.116 187.529 191.233C187.913 191.27 188.3 191.218 188.661 191.082C190.461 190.592 192.358 190.605 194.221 190.504C195.062 190.462 196.005 190.307 196.383 189.574C196.854 188.66 196.072 187.638 195.765 186.641C195.608 186.014 195.521 185.371 195.504 184.726C195.362 183.132 194.893 181.584 194.124 180.179C193.489 179.014 192.619 177.723 193.065 176.47C193.216 176.051 193.519 175.632 193.485 175.213C193.342 173.206 188.711 173.898 187.571 173.659Z" fill="#2F2E41"/>
<path d="M233.36 138.526C230.928 137.456 228.979 135.526 227.892 133.108C227.66 132.589 227.471 132.048 227.252 131.524C226.531 129.781 225.41 128.229 223.98 126.994C223.826 126.827 223.638 126.695 223.428 126.606C223.219 126.518 222.992 126.476 222.764 126.483C222.544 126.55 222.346 126.673 222.189 126.841C222.033 127.009 221.924 127.215 221.873 127.439C221.747 127.915 221.715 128.412 221.78 128.901C221.903 130.053 222.103 131.195 222.377 132.32L223.042 135.342C223.124 135.807 223.265 136.261 223.463 136.691C223.748 137.2 224.126 137.652 224.577 138.024C225.187 138.585 225.806 139.126 226.432 139.654C227.306 140.487 228.444 140.99 229.65 141.078C232.376 141.581 235.152 142.31 237.457 144.083C237.427 144.083 237.457 142.055 237.406 141.824C237.301 141.217 237.217 140.613 236.822 140.203C235.917 139.281 234.449 139.017 233.36 138.526Z" fill="#FBBEBE"/>
<path opacity="0.1" d="M233.36 138.526C230.928 137.456 228.979 135.526 227.892 133.108C227.66 132.589 227.471 132.048 227.252 131.524C226.531 129.781 225.41 128.229 223.98 126.994C223.826 126.827 223.638 126.695 223.428 126.606C223.219 126.518 222.992 126.476 222.764 126.483C222.544 126.55 222.346 126.673 222.189 126.841C222.033 127.009 221.924 127.215 221.873 127.439C221.747 127.915 221.715 128.412 221.78 128.901C221.903 130.053 222.103 131.195 222.377 132.32L223.042 135.342C223.124 135.807 223.265 136.261 223.463 136.691C223.748 137.2 224.126 137.652 224.577 138.024C225.187 138.585 225.806 139.126 226.432 139.654C227.306 140.487 228.444 140.99 229.65 141.078C232.376 141.581 235.152 142.31 237.457 144.083C237.427 144.083 237.457 142.055 237.406 141.824C237.301 141.217 237.217 140.613 236.822 140.203C235.917 139.281 234.449 139.017 233.36 138.526Z" fill="black"/>
<path d="M261.344 115.391C263.19 115.391 264.688 113.892 264.688 112.043C264.688 110.194 263.19 108.695 261.344 108.695C259.497 108.695 258 110.194 258 112.043C258 113.892 259.497 115.391 261.344 115.391Z" fill="#2F2E41"/>
<path d="M259.274 110.019C258.37 109.918 257.36 109.847 256.633 110.4C256.246 110.739 255.938 111.156 255.728 111.624C254.98 112.905 254.397 114.275 253.991 115.701C253.693 116.925 253.642 118.215 253.272 119.406C252.586 121.635 250.832 123.516 250.63 125.842C250.542 126.881 250.719 128.101 249.953 128.813C249.767 128.969 249.567 129.11 249.356 129.232C248.827 129.585 248.379 130.045 248.039 130.581C247.81 131.063 247.493 131.499 247.106 131.868C246.424 132.371 245.297 132.316 244.961 133.096C244.624 133.875 245.49 134.772 245.289 135.61C245.125 136.297 244.355 136.611 243.825 137.081C243.143 137.68 242.832 138.581 242.563 139.444C241.445 139.655 240.295 139.622 239.192 139.347C238.088 139.073 237.057 138.564 236.17 137.856C237.099 140.144 237.12 142.671 237.162 145.143C237.162 145.943 237.162 146.844 236.573 147.402C239.236 147.46 241.831 148.177 244.426 148.764C245.562 149.019 246.794 149.241 247.85 148.764C248.446 148.444 248.978 148.018 249.419 147.506C250.832 146.077 252.313 144.523 252.658 142.541C252.851 141.435 252.658 140.295 252.717 139.188C252.847 137.799 253.129 136.427 253.558 135.099C254.306 132.343 254.809 129.528 255.06 126.684C255.211 124.933 256.742 123.521 257.533 121.949C259.047 118.991 260.591 115.907 260.704 112.584C260.759 111.486 260.38 110.141 259.274 110.019Z" fill="#2F2E41"/>
<path opacity="0.1" d="M259.274 110.019C258.37 109.918 257.36 109.847 256.633 110.4C256.246 110.739 255.938 111.156 255.728 111.624C254.98 112.905 254.397 114.275 253.991 115.701C253.693 116.925 253.642 118.215 253.272 119.406C252.586 121.635 250.832 123.516 250.63 125.842C250.542 126.881 250.719 128.101 249.953 128.813C249.767 128.969 249.567 129.11 249.356 129.232C248.827 129.585 248.379 130.045 248.039 130.581C247.81 131.063 247.493 131.499 247.106 131.868C246.424 132.371 245.297 132.316 244.961 133.096C244.624 133.875 245.49 134.772 245.289 135.61C245.125 136.297 244.355 136.611 243.825 137.081C243.143 137.68 242.832 138.581 242.563 139.444C241.445 139.655 240.295 139.622 239.192 139.347C238.088 139.073 237.057 138.564 236.17 137.856C237.099 140.144 237.12 142.671 237.162 145.143C237.162 145.943 237.162 146.844 236.573 147.402C239.236 147.46 241.831 148.177 244.426 148.764C245.562 149.019 246.794 149.241 247.85 148.764C248.446 148.444 248.978 148.018 249.419 147.506C250.832 146.077 252.313 144.523 252.658 142.541C252.851 141.435 252.658 140.295 252.717 139.188C252.847 137.799 253.129 136.427 253.558 135.099C254.306 132.343 254.809 129.528 255.06 126.684C255.211 124.933 256.742 123.521 257.533 121.949C259.047 118.991 260.591 115.907 260.704 112.584C260.759 111.486 260.38 110.141 259.274 110.019Z" fill="black"/>
<path d="M256.132 163.371C253.272 162.014 251.177 159.487 248.864 157.32C244.447 153.189 239.042 150.264 234.399 146.388C231.32 143.823 228.569 140.831 225.187 138.681C222.211 136.797 218.839 135.621 215.332 135.245C214.93 135.174 214.518 135.194 214.125 135.304C213.682 135.499 213.295 135.804 213.002 136.188C211.504 137.873 210.171 139.697 209.023 141.636C203.134 151.588 194.772 159.969 187.845 169.217C187.626 169.437 187.496 169.73 187.481 170.039C187.465 170.348 187.565 170.652 187.76 170.893L189.169 173.642C189.956 175.184 191.222 176.994 192.921 176.672C193.7 176.529 194.318 175.959 194.89 175.414L201.199 169.393L207.832 163.074C211.719 159.374 215.669 155.585 218.205 150.855C220.182 154.274 223.698 156.512 226.108 159.654C227.025 160.844 227.791 162.169 228.59 163.426C229.902 165.445 231.395 167.344 232.884 169.238L240.494 178.913C241.528 180.229 242.597 181.579 244.014 182.471C245.819 183.607 248.01 183.908 250.13 184.097C252.988 184.351 255.858 184.455 258.727 184.407C260.915 184.369 263.169 184.227 265.133 183.259C267.098 182.291 268.709 180.326 268.608 178.113C268.487 176.976 268.112 175.881 267.51 174.907C264.81 169.921 261.255 165.793 256.132 163.371Z" fill="#2F2E41"/>
<path d="M263.401 116.937C264.82 116.937 265.971 115.784 265.971 114.36C265.971 112.937 264.82 111.783 263.401 111.783C261.981 111.783 260.831 112.937 260.831 114.36C260.831 115.784 261.981 116.937 263.401 116.937Z" fill="#E8E8F0"/>
<path d="M262.833 112.424C263.411 113.571 263.512 114.899 263.115 116.12C262.717 117.325 262.161 118.472 261.461 119.531C260.86 120.625 260.139 121.649 259.312 122.586C263.279 122.779 267.127 121.228 270.627 119.347C273.445 117.838 276.255 115.969 277.777 113.145C277.33 113.253 276.864 113.266 276.411 113.183C275.958 113.1 275.528 112.923 275.148 112.663C274.393 112.138 273.716 111.509 273.138 110.794L271.144 108.561C270.676 108.075 270.266 107.538 269.92 106.96C269.488 106.169 269.305 105.267 269.394 104.37C268.603 105.196 267.718 105.927 266.757 106.549C265.335 107.471 263.766 108.142 262.341 109.064C261.836 109.386 260.709 109.902 260.999 110.568C261.289 111.234 262.442 111.72 262.833 112.424Z" fill="#FBBEBE"/>
<path opacity="0.1" d="M262.833 112.424C263.411 113.571 263.512 114.899 263.115 116.12C262.717 117.325 262.161 118.472 261.461 119.531C260.86 120.625 260.139 121.649 259.312 122.586C263.279 122.779 267.127 121.228 270.627 119.347C273.445 117.838 276.255 115.969 277.777 113.145C277.33 113.253 276.864 113.266 276.411 113.183C275.958 113.1 275.528 112.923 275.148 112.663C274.393 112.138 273.716 111.509 273.138 110.794L271.144 108.561C270.676 108.075 270.266 107.538 269.92 106.96C269.488 106.169 269.305 105.267 269.394 104.37C268.603 105.196 267.718 105.927 266.757 106.549C265.335 107.471 263.766 108.142 262.341 109.064C261.836 109.386 260.709 109.902 260.999 110.568C261.289 111.234 262.442 111.72 262.833 112.424Z" fill="black"/>
<path d="M262.887 112.814C262.143 114.071 261.983 115.538 262.887 116.678C263.001 116.82 263.417 117.7 263.598 117.708C263.773 117.691 263.935 117.609 264.053 117.478C265.016 116.602 265.735 115.483 266.576 114.49C267.417 113.497 268.49 112.596 269.777 112.395C271.329 112.156 272.831 112.973 274.189 113.765C274.78 114.052 275.296 114.473 275.695 114.993C275.982 115.509 276.151 116.081 276.192 116.669C276.658 120.193 276.65 123.764 276.637 127.317C276.637 129.89 276.637 132.475 276.133 134.998C275.88 136.305 275.502 137.584 275.321 138.899C275.191 140.061 275.139 141.23 275.165 142.398V147.293C275.131 148.191 275.195 149.09 275.355 149.975C275.586 151.047 276.095 152.036 276.436 153.08C276.787 154.279 277.028 155.508 277.155 156.75L277.828 161.817C278.038 163.413 278.194 165.169 277.226 166.426C276.806 167.004 276.213 167.47 275.771 168.048C274.088 170.202 274.639 173.282 273.945 175.917C273.399 177.847 272.275 179.565 270.724 180.841C269.533 181.847 267.998 182.635 266.471 182.354C264.406 181.972 263.165 179.84 262.601 177.799C262.038 175.758 261.836 173.567 260.616 171.857C259.619 170.457 258.092 169.577 256.679 168.58C255.266 167.583 253.92 166.296 253.617 164.603C253.482 163.866 253.566 163.107 253.487 162.361C253.377 161.416 253.013 160.517 252.434 159.76C251.856 159.003 251.083 158.415 250.197 158.058C249.142 157.639 247.838 157.501 247.253 156.537C248.792 155.674 249.81 154.077 250.349 152.397C250.887 150.716 250.996 148.931 251.102 147.171L251.455 141.284C251.611 138.652 251.682 136.046 252.847 133.682C253.365 132.622 254.012 131.633 254.555 130.59C255.271 129.122 255.882 127.605 256.385 126.052C257.226 123.638 258.067 121.224 258.824 118.781C259.125 117.601 259.575 116.463 260.162 115.395C260.759 114.373 261.693 113.036 262.887 112.814Z" fill="#FFBA3127"/>
<path d="M249.764 151.064L251.329 151.119L251.661 148.768C251.703 148.296 251.814 147.833 251.989 147.393C252.248 146.929 252.549 146.49 252.889 146.082C254.429 143.915 254.315 141.053 254.698 138.409C255.207 134.897 256.679 131.612 258.134 128.381L261.18 121.639C261.783 120.494 262.073 119.21 262.021 117.918C262.05 116.875 262.357 113.086 262.387 112.051C262.387 111.666 261.546 111.88 261.356 111.536C260.978 110.786 260.456 112.818 259.745 113.262C259.035 113.707 258.639 114.52 258.34 115.299C257.684 116.996 257.285 118.781 256.658 120.495C256.031 122.209 255.198 123.893 253.823 125.104C253.201 125.649 252.485 126.077 251.897 126.659C250.008 128.52 249.823 131.457 249.756 134.11C249.722 135.664 249.402 151.064 249.764 151.064Z" fill="#2F2E41"/>
<path d="M272.276 110.002C270.757 110.597 269.924 112.24 269.5 113.816C269.075 115.391 268.898 117.076 268.082 118.488C266.172 121.794 261.31 122.758 259.968 126.332C259.548 127.501 259.548 128.784 259.426 130.028C259.182 132.589 258.336 135.057 258.088 137.621C257.956 139.61 258.002 141.607 258.227 143.588L259.909 163.782C260.158 166.715 260.149 169.829 259.4 172.661C261.121 172.992 262.913 172.548 264.507 171.823C266.101 171.098 267.56 170.101 269.096 169.259C271.737 167.805 274.652 166.778 276.966 164.842C277.385 164.517 277.744 164.121 278.025 163.673C278.488 162.877 278.53 161.909 278.749 161.012C278.948 160.295 279.203 159.595 279.51 158.917C280.358 156.882 281.096 154.803 281.723 152.69C282.153 151.289 282.492 149.861 282.736 148.416C282.922 147.268 283.022 146.103 283.123 144.942C283.247 143.123 283.609 141.328 284.2 139.603C285.678 135.491 286.517 131.179 286.686 126.814C286.734 126.184 286.69 125.55 286.556 124.933C286.296 124.184 285.952 123.467 285.529 122.796C284.823 121.471 284.398 120.013 283.733 118.664C282.227 115.626 279.565 113.317 276.78 111.385C275.426 110.442 273.828 109.399 272.276 110.002Z" fill="#2F2E41"/>
<path d="M236.746 142.947C235.538 142.316 234.445 141.487 233.511 140.496C233.091 140.001 232.737 139.444 232.304 138.958C231.212 137.796 229.793 136.989 228.233 136.645C226.685 136.306 225.102 136.153 223.517 136.188C222.457 136.121 221.393 136.249 220.38 136.565C219.872 136.73 219.416 137.021 219.052 137.411C218.689 137.8 218.431 138.275 218.302 138.79C218.07 140.047 218.895 141.267 219.883 142.076C220.804 142.824 221.887 143.348 223.046 143.605C223.991 143.768 224.945 143.879 225.902 143.936C231.53 144.523 236.552 147.573 241.465 150.352C245.798 152.796 250.213 155.078 254.711 157.199C254.888 155.856 254.962 154.501 254.933 153.147C254.908 152.137 254.858 150.595 253.899 150C252.784 149.308 250.954 149.162 249.693 148.743C246.793 147.796 243.962 146.655 241.217 145.327C239.7 144.587 238.21 143.794 236.746 142.947Z" fill="#FBBEBE"/>
<path d="M271.305 104.003C272.721 98.6378 269.527 93.1513 264.171 91.7485C258.815 90.3456 253.325 93.5576 251.909 98.9226C250.493 104.288 253.688 109.774 259.044 111.177C264.4 112.58 269.889 109.368 271.305 104.003Z" fill="#FBBEBE"/>
<path d="M275.144 121.392C274.248 122.431 273.798 123.772 273.197 125.004C271.96 127.543 270.017 129.722 269.045 132.379C268.019 135.178 268.053 138.505 266.042 140.705C265.693 141.087 265.272 141.455 265.171 141.962C265.157 142.27 265.122 142.577 265.066 142.88C264.78 143.676 263.468 143.718 263.224 144.531C263.152 144.77 263.19 145.03 263.102 145.265C262.9 145.788 262.206 145.868 261.739 146.186C260.763 146.844 260.961 148.37 260.267 149.321C259.962 149.677 259.568 149.945 259.124 150.099C258.68 150.252 258.204 150.284 257.743 150.192C256.832 150.006 255.955 149.68 255.144 149.224C254.856 149.065 254.538 148.967 254.21 148.935C253.821 148.948 253.445 149.074 253.129 149.3C251.278 150.473 250.408 152.799 250.42 154.995C250.433 157.19 251.19 159.302 251.964 161.356C252.071 161.702 252.245 162.024 252.477 162.303C253.091 162.948 254.159 162.847 254.975 162.487C255.792 162.127 256.532 161.561 257.407 161.402C258.959 161.121 260.477 162.185 262.034 162.097C263.186 162.03 264.208 161.364 265.163 160.719C266.694 159.688 268.25 158.624 269.369 157.165C270.059 156.269 270.564 155.25 271.165 154.291C271.935 153.122 272.778 152.002 273.689 150.938L279.468 143.89C280.048 143.223 280.569 142.506 281.024 141.749C281.55 140.726 281.957 139.646 282.236 138.531C282.787 136.649 283.342 134.759 283.435 132.794C283.467 131.181 283.326 129.57 283.014 127.988C282.815 126.41 282.39 124.869 281.752 123.412C280.562 120.797 277.504 118.647 275.144 121.392Z" fill="#2F2E41"/>
<path d="M292.625 116.908C293.088 115.188 293.134 113.383 292.76 111.642C292.385 109.901 291.601 108.273 290.472 106.893C292.007 100.369 288.663 93.8357 282.774 91.4179C282.985 85.2999 279.094 79.6847 273.1 78.1091C266.871 76.4791 260.481 79.756 257.794 85.5806C254.008 83.6237 250.004 83.8332 248.683 86.1337C247.303 88.539 249.377 92.323 253.31 94.5816C254.549 95.3033 255.906 95.8039 257.318 96.0608C257.925 97.77 258.884 99.3338 260.133 100.652C261.383 101.969 262.896 103.012 264.574 103.712C264.471 106.186 265.061 108.64 266.28 110.797C267.498 112.955 269.296 114.732 271.472 115.928C271.71 117.647 272.348 119.287 273.336 120.717C273.22 121.017 273.122 121.324 273.041 121.635C271.805 126.307 274.48 131.059 279.01 132.245C283.54 133.431 288.217 130.607 289.449 125.934C289.781 124.689 289.838 123.386 289.618 122.117C291.071 120.681 292.11 118.882 292.625 116.908Z" fill="#3F3D56"/>
<path opacity="0.1" d="M251.278 87.349C252.599 85.0484 256.599 84.8347 260.389 86.7958C263.068 80.9712 269.466 77.6901 275.695 79.3243C275.977 79.3956 276.255 79.4836 276.537 79.5758C275.471 78.9211 274.315 78.4269 273.104 78.1091C266.875 76.4791 260.486 79.756 257.798 85.5806C254.012 83.6237 250.008 83.8332 248.687 86.1337C247.308 88.539 249.381 92.323 253.314 94.5816C254.052 95.0048 254.83 95.3556 255.636 95.6292C251.876 93.3412 249.932 89.6956 251.278 87.349Z" fill="black"/>
<path opacity="0.1" d="M275.641 122.85C275.721 122.539 275.819 122.232 275.935 121.932C274.948 120.501 274.309 118.859 274.072 117.139C271.896 115.944 270.098 114.168 268.879 112.011C267.66 109.854 267.07 107.401 267.174 104.928C265.495 104.227 263.983 103.185 262.733 101.867C261.483 100.549 260.524 98.9852 259.918 97.276C259.094 97.1297 258.289 96.8951 257.516 96.5762C258.159 98.1706 259.113 99.6215 260.324 100.845C261.535 102.068 262.978 103.038 264.57 103.7C264.466 106.174 265.057 108.627 266.276 110.785C267.494 112.942 269.292 114.719 271.468 115.915C271.706 117.634 272.344 119.275 273.331 120.705C273.216 121.005 273.117 121.311 273.037 121.622C271.805 126.278 274.459 131.013 278.964 132.22C277.519 131.18 276.428 129.726 275.834 128.052C275.24 126.378 275.173 124.563 275.641 122.85Z" fill="black"/>
<path d="M265.932 104.92C266.611 104.406 266.602 103.256 265.912 102.351C265.222 101.446 264.113 101.129 263.434 101.643C262.755 102.157 262.764 103.307 263.454 104.211C264.143 105.116 265.253 105.433 265.932 104.92Z" fill="#FBBEBE"/>
<path d="M142.624 16.485C146.408 16.485 149.476 13.4289 149.476 9.65888C149.476 5.88889 146.408 2.83271 142.624 2.83271C138.84 2.83271 135.772 5.88889 135.772 9.65888C135.772 13.4289 138.84 16.485 142.624 16.485Z" fill="#3F3D56"/>
<path d="M157.493 49.6144C168.107 49.6144 176.711 38.5078 176.711 24.8072C176.711 11.1066 168.107 0 157.493 0C146.879 0 138.275 11.1066 138.275 24.8072C138.275 38.5078 146.879 49.6144 157.493 49.6144Z" fill="#3F3D56"/>
<path opacity="0.1" d="M157.493 42.1219C147.865 42.1219 139.89 32.9827 138.489 21.061C138.343 22.3044 138.27 23.5553 138.27 24.8072C138.27 38.5056 146.876 49.6144 157.493 49.6144C168.109 49.6144 176.711 38.5056 176.711 24.8072C176.711 23.5553 176.638 22.3044 176.492 21.061C175.096 32.9994 167.121 42.1219 157.493 42.1219Z" fill="black"/>
<path d="M198.444 97.4604C198.024 99.1366 196.253 100.503 194.284 101.445C190.137 103.436 185.031 104.027 180.072 104.228C178.81 104.304 177.544 104.28 176.286 104.157C173.691 103.851 171.285 102.749 169.783 101.177C169.569 101.006 169.421 100.766 169.363 100.498C169.373 100.338 169.416 100.181 169.488 100.037C169.56 99.8931 169.661 99.7651 169.783 99.6604C172.429 96.7857 176.837 95.0174 181.262 93.7603C184.627 92.7923 190.49 90.2864 194.162 90.6259C197.729 90.9318 198.966 95.3233 198.444 97.4604Z" fill="#3F3D56"/>
<path opacity="0.1" d="M198.444 97.4604C198.024 99.1366 196.253 100.503 194.284 101.445C190.137 103.436 185.031 104.027 180.072 104.228C178.81 104.304 177.544 104.28 176.286 104.157C173.691 103.851 171.285 102.749 169.783 101.177C169.569 101.006 169.421 100.766 169.363 100.498C169.373 100.338 169.416 100.181 169.488 100.037C169.56 99.8931 169.661 99.7651 169.783 99.6604C172.429 96.7857 176.837 95.0174 181.262 93.7603C184.627 92.7923 190.49 90.2864 194.162 90.6259C197.729 90.9318 198.966 95.3233 198.444 97.4604Z" fill="black"/>
<path d="M145.757 84.8305C144.496 87.296 144.267 90.1593 145.122 92.7923C145.994 95.4106 147.626 97.712 149.812 99.4047C155.183 103.7 162.553 104.291 169.421 104.236C175.444 104.182 181.459 103.771 187.432 103.004C189.422 102.749 191.432 102.447 193.275 101.655C195.517 100.687 197.481 98.9145 198.284 96.6265C199.088 94.3385 198.52 91.5058 196.602 89.9721C194.919 88.6228 192.635 88.4385 190.494 88.296L178.233 87.5627C179.445 86.3391 181.056 85.6476 182.532 84.7635C184.488 83.5818 185.788 81.6039 187.214 79.823C189.317 77.1579 191.84 74.828 194.364 72.5107C194.785 74.7903 196.211 76.6634 197.914 78.239C199.618 79.8146 201.582 81.0801 203.357 82.5761C207.647 86.205 210.735 91.1329 215.248 94.4852C218.353 93.6719 221.256 92.2281 223.774 90.2445L222.02 87.0808C221.876 86.7494 221.649 86.4607 221.36 86.2427C220.859 85.941 220.22 86.096 219.643 86.0122C218.104 85.7817 217.431 84.0092 216.825 82.5803C215.168 78.6497 211.988 75.6033 209.254 72.3096C207.26 69.8814 205.493 67.2767 203.975 64.528C203.063 62.8896 202.23 61.1757 200.989 59.7635C199.748 58.3514 198.019 57.2493 196.135 57.2493C194.453 57.2493 192.938 58.0874 191.508 58.9255C187.152 61.5041 182.96 64.3492 178.957 67.4446C176.854 69.062 174.78 70.7759 172.324 71.769C171.289 72.1881 170.221 72.473 169.207 72.9801C167.47 73.8726 166.149 75.3812 164.727 76.7179C159.663 81.4908 152.727 84.5833 145.757 84.8305Z" fill="#605D82"/>
<path d="M171.398 50.8464C171.344 52.3069 171.032 53.7466 170.477 55.0996C170.196 55.7718 169.78 56.3792 169.253 56.8839C168.726 57.3886 168.1 57.7797 167.415 58.0329C166.44 58.2932 165.418 58.3262 164.429 58.1293C163.564 58.0363 162.731 57.7498 161.993 57.2912C160.845 56.5034 160.273 55.0996 160.063 53.7252C159.852 52.3507 159.949 50.9469 159.814 49.5641C159.683 48.4464 159.47 47.34 159.175 46.2537C159.087 45.8933 158.994 45.5329 158.902 45.1725C158.809 44.8122 158.729 44.4518 158.649 44.0914C158.569 43.7311 158.506 43.4168 158.447 43.0732C158.389 42.7295 158.355 42.4949 158.325 42.2057C158.299 41.3417 158.157 40.485 157.905 39.658C157.665 39.1226 157.365 38.6164 157.009 38.1494C156.857 37.9315 156.71 37.7304 156.588 37.4915C156.197 36.9077 156.014 36.2094 156.071 35.5095C156.087 35.401 156.114 35.2943 156.151 35.191C156.164 35.1509 156.179 35.1118 156.197 35.0737C156.347 35.0327 156.485 34.9559 156.598 34.8501C156.712 34.7442 156.798 34.6124 156.849 34.4661C156.907 34.1503 156.879 33.8249 156.769 33.5232C156.646 33.1019 156.475 32.6956 156.26 32.3122C156.121 32.0608 155.646 31.604 155.642 31.3149C155.642 30.7324 156.778 30.2631 157.24 30.0326C158.654 29.3264 160.23 29.0081 161.808 29.1107C162.818 29.1778 163.911 29.4879 164.471 30.3343C164.975 31.0928 164.891 32.0775 165.123 32.9617C165.142 33.0908 165.196 33.2124 165.278 33.3137C165.388 33.4132 165.526 33.4762 165.674 33.4939C165.92 33.5434 166.173 33.5533 166.422 33.5232C166.489 33.5196 166.555 33.5098 166.62 33.4939C167.009 33.4222 167.377 33.2647 167.697 33.033C167.907 32.9743 168.117 32.9324 168.324 32.8947H168.349C169.19 35.5262 169.295 38.3422 169.981 41.0324C170.322 42.365 170.822 43.6808 170.877 45.0552C170.877 45.1139 170.877 45.1767 170.877 45.2354C170.877 45.6796 170.852 46.1238 170.877 46.5638C170.884 46.7607 170.907 46.9568 170.944 47.1504C171.02 47.4625 171.113 47.7702 171.222 48.0723C171.251 48.1687 171.281 48.2651 171.306 48.3656C171.327 48.4359 171.343 48.5072 171.356 48.5793C171.48 49.3291 171.494 50.0926 171.398 50.8464Z" fill="#FBBEBE"/>
<path d="M159.671 33.6322C165.117 33.6322 169.531 29.2346 169.531 23.8099C169.531 18.3852 165.117 13.9876 159.671 13.9876C154.226 13.9876 149.812 18.3852 149.812 23.8099C149.812 29.2346 154.226 33.6322 159.671 33.6322Z" fill="#FBBEBE"/>
<path d="M222.272 77.3297C221.985 74.6525 221.029 72.0896 219.492 69.875L220.262 74.4216C219.942 74.5127 219.603 74.5093 219.286 74.4118C218.969 74.3144 218.687 74.127 218.474 73.8726C218.058 73.356 217.74 72.7681 217.536 72.1378C216.416 69.3679 214.951 66.7493 213.174 64.3436C206.899 63.8198 200.69 61.2302 195.172 58.2047C189.653 55.1792 184.484 51.5629 179.033 48.4159C178.088 47.8481 177.104 47.3468 176.088 46.9158C174.385 46.2369 172.471 45.8849 170.856 45.0845L170.532 44.9127C170.166 44.7171 169.819 44.487 169.497 44.2255C169.324 44.0832 169.16 43.9307 169.005 43.7688C168.198 42.8351 167.558 41.7708 167.112 40.6218C166.246 38.7109 165.935 36.402 165.072 34.4912C165.47 34.1223 165.916 33.808 166.397 33.5568L166.608 33.452C166.95 33.2926 167.306 33.1636 167.672 33.0665C167.882 33.0078 168.092 32.9659 168.298 32.9282H168.324C169.301 32.7712 170.302 32.8503 171.243 33.1587C172.614 33.6238 173.766 34.5457 174.927 35.4215C176.757 36.8001 178.658 38.0991 180.32 39.6789C181.27 40.5882 182.141 41.5856 183.163 42.4111C184.015 43.0665 184.914 43.6602 185.851 44.1878L202.482 54.0562C204.358 55.1667 206.238 56.2813 208.072 57.463C210.861 59.2523 213.54 61.1925 216.232 63.1326L220.981 66.5604C221.501 66.8963 221.957 67.322 222.327 67.8175C222.653 68.3731 222.855 68.9918 222.92 69.6319C223.315 72.2129 223.093 74.8502 222.272 77.3297Z" fill="#FBBEBE"/>
<path d="M173.846 58.234C173.178 61.205 170.166 63.0027 168.589 65.6133C166.629 68.8525 167.428 72.6197 168.168 76.3324L164.134 79.7937C163.394 80.4264 162.649 81.0508 161.854 81.6249C160.688 82.4057 159.47 83.1057 158.208 83.7201L154.641 85.5471C153.534 86.1665 152.362 86.6612 151.146 87.0221C148.798 87.6213 146.308 87.2023 143.995 86.5109C143.721 86.4398 143.458 86.3327 143.213 86.1924C143.068 86.106 142.943 85.992 142.842 85.8572C142.612 85.4488 142.529 84.9741 142.607 84.5121C142.842 80.6234 143.797 76.8143 144.748 73.0345C145.247 70.7646 145.924 68.537 146.771 66.3718C147.606 64.5184 148.565 62.7236 149.644 60.9997C150.906 58.8752 152.168 56.7339 153.85 54.9111C154.569 54.1233 155.373 53.3774 155.802 52.3968C156.395 51.0475 156.163 49.5012 156.285 48.0346C156.376 46.9305 156.67 45.8525 157.152 44.8541C157.41 44.3168 157.72 43.8059 158.077 43.3288C158.241 43.7059 158.401 44.083 158.565 44.456L158.881 45.1935C159.019 45.5078 159.154 45.8262 159.301 46.1405C159.694 47.0401 160.084 47.941 160.471 48.8433C160.888 49.9799 161.486 51.0425 162.241 51.9903C163.045 52.8955 164.227 53.5534 165.43 53.4235C165.995 53.3296 166.532 53.1117 167.002 52.7855C167.471 52.4594 167.863 52.0332 168.147 51.5378C168.71 50.5455 169.118 49.4728 169.354 48.3573C169.686 46.9999 169.731 45.5888 169.489 44.213C169.068 41.5604 167.953 38.8534 167.133 36.3895C166.799 35.5685 166.605 34.6973 166.561 33.8124C166.561 33.7124 166.57 33.6127 166.591 33.5148V33.4394C166.933 33.28 167.289 33.151 167.655 33.0539C167.865 32.9952 168.075 32.9533 168.282 32.9156C169.005 36.8267 169.73 40.7293 170.456 44.6236C170.456 44.7158 170.494 44.808 170.511 44.9002C170.612 45.4617 170.717 46.019 170.835 46.5763C170.952 47.1337 171.053 47.5862 171.18 48.0849C171.222 48.2525 171.268 48.4243 171.314 48.5919C171.445 49.0529 171.588 49.5054 171.735 49.958C172.761 52.6943 174.473 55.4223 173.846 58.234Z" fill="#FFBA3127"/>
<path d="M213.864 99.9998C213.828 100.577 213.939 101.154 214.188 101.676C214.802 102.799 216.291 103.055 217.553 103.159C225.038 103.774 232.568 103.546 240.001 102.48C240.405 102.451 240.797 102.329 241.146 102.124C242.201 101.387 241.566 99.5891 240.397 99.0108C239.227 98.4326 237.873 98.5918 236.611 98.3278C235.353 98.0107 234.154 97.4928 233.061 96.7941C230.495 95.3247 227.972 93.7882 225.49 92.1847C224.005 91.2335 222.251 90.2194 220.581 90.7851C216.043 92.3104 213.831 95.1347 213.864 99.9998Z" fill="#2F2E41"/>
<path d="M158.687 43.8945L158.649 44.0998L158.586 44.4434C158.38 45.4994 158.124 46.5386 157.833 47.5988C157.03 50.486 155.957 53.3313 154.889 56.1305L146.304 78.6748C145.581 80.5689 144.861 82.4462 144.041 84.3151C143.768 84.9311 143.486 85.5722 143.2 86.184C142.195 88.4343 141.227 90.76 140.908 93.1611C140.697 94.7492 140.487 96.3709 140.802 97.9423C141.118 99.5137 142.064 101.052 143.583 101.63C144.315 101.915 145.362 102.296 145.16 103.055C145.055 103.474 144.58 103.675 144.151 103.742C143.588 103.832 143.012 103.798 142.465 103.64C141.917 103.483 141.411 103.207 140.983 102.833C140.184 102.129 139.566 101.026 138.502 100.909C137.766 100.829 137.088 101.269 136.399 101.575C133.643 102.833 130.438 101.953 127.544 101.06C127.772 99.895 128.949 99.124 130.114 98.8935C131.28 98.6631 132.491 98.8223 133.686 98.793C134.068 98.8129 134.447 98.7148 134.771 98.5122C135.064 98.2514 135.273 97.9103 135.372 97.5317C136.139 95.2658 136.709 92.9385 137.076 90.5756C137.463 88.1032 137.623 85.5974 138.169 83.1586C138.59 81.2561 139.255 79.4123 139.818 77.5434C140.912 73.697 141.809 69.7977 142.506 65.8606C142.859 64.2264 143.112 62.5723 143.263 60.9075C143.36 59.5247 143.314 58.1335 143.448 56.759C143.671 54.9681 144.046 53.1991 144.567 51.4707C145.08 49.5808 145.589 47.6994 146.102 45.8137C146.859 43.0229 147.671 40.1273 149.589 37.9609C150.255 37.1973 151.071 36.5782 151.987 36.1421C152.903 35.706 153.9 35.4621 154.914 35.4257C155.295 35.4239 155.674 35.4647 156.046 35.5472L156.231 35.5933C156.637 35.6975 157.026 35.8583 157.387 36.071C157.981 35.6939 158.279 35.8279 158.675 36.402C159.018 37.0151 159.18 37.7125 159.141 38.4134C159.172 40.2509 159.02 42.0868 158.687 43.8945Z" fill="#FBBEBE"/>
<path d="M159.335 46.1196L159.31 46.1447L159.175 46.2788L157.833 47.6156L157.173 44.8583L154.914 35.4131C155.295 35.4114 155.674 35.4521 156.046 35.5346C156.062 35.4261 156.089 35.3195 156.126 35.2162L156.231 35.5807L156.996 38.1746L158.447 43.0983L158.687 43.9112L159.335 46.1196Z" fill="#FFBA3127"/>
<path d="M166.868 9.32365H155.57C152.783 9.32365 150.523 11.575 150.523 14.3521V17.6165C150.523 20.3936 152.783 22.6449 155.57 22.6449H166.868C169.656 22.6449 171.916 20.3936 171.916 17.6165V14.3521C171.916 11.575 169.656 9.32365 166.868 9.32365Z" fill="#3F3D56"/>
<path d="M173.165 16.485C176.949 16.485 180.017 13.4289 180.017 9.65888C180.017 5.88889 176.949 2.83271 173.165 2.83271C169.381 2.83271 166.313 5.88889 166.313 9.65888C166.313 13.4289 169.381 16.485 173.165 16.485Z" fill="#3F3D56"/>
<path opacity="0.1" d="M173.001 2.82852H172.749C174.513 2.90402 176.181 3.65554 177.402 4.92625C178.624 6.19697 179.306 7.88869 179.306 9.6484C179.306 11.4081 178.624 13.0998 177.402 14.3705C176.181 15.6413 174.513 16.3928 172.749 16.4683H173.001C174.818 16.4683 176.561 15.7491 177.846 14.4689C179.131 13.1888 179.853 11.4525 179.853 9.64211C179.853 7.8317 179.131 6.09544 177.846 4.81528C176.561 3.53513 174.818 2.81595 173.001 2.81595V2.82852Z" fill="black"/>
<path opacity="0.1" d="M142.624 2.82852H142.876C141.111 2.90402 139.444 3.65554 138.222 4.92625C137 6.19697 136.318 7.88869 136.318 9.6484C136.318 11.4081 137 13.0998 138.222 14.3705C139.444 15.6413 141.111 16.3928 142.876 16.4683H142.624C141.724 16.4683 140.833 16.2917 140.002 15.9487C139.17 15.6056 138.415 15.1028 137.779 14.4689C137.142 13.8351 136.638 13.0826 136.293 12.2544C135.949 11.4262 135.772 10.5385 135.772 9.64211C135.772 8.74569 135.949 7.85804 136.293 7.02986C136.638 6.20167 137.142 5.44915 137.779 4.81528C138.415 4.18142 139.17 3.67861 140.002 3.33556C140.833 2.99251 141.724 2.81595 142.624 2.81595V2.82852Z" fill="black"/>
<path opacity="0.1" d="M172.126 21.3082H154.763C154.231 21.3082 153.722 21.0982 153.346 20.7242C152.969 20.3503 152.758 19.843 152.756 19.3136V20.6419C152.758 21.1717 152.969 21.6795 153.345 22.0541C153.721 22.4287 154.231 22.6396 154.763 22.6407H172.143C172.675 22.6396 173.184 22.4287 173.56 22.0541C173.936 21.6795 174.148 21.1717 174.149 20.6419V19.3136C174.148 19.577 174.095 19.8376 173.993 20.0804C173.89 20.3233 173.741 20.5437 173.553 20.729C173.365 20.9142 173.142 21.0608 172.897 21.1601C172.653 21.2595 172.39 21.3099 172.126 21.3082Z" fill="black"/>
<path d="M231.03 91.1832C231.03 91.1832 232.115 91.3718 232.291 90.496C232.38 90.0769 232.081 87.3867 231.74 84.6964C231.576 83.3723 231.4 82.0523 231.257 80.9963C231.084 79.7015 230.958 78.8089 230.958 78.8089L230.76 78.1552L229.591 74.2414L228.489 70.5538L227.677 69.104L221.835 71.9367L218.201 78.1929L219.328 78.9011L219.526 79.0268L221.599 81.1891L227.412 87.2652L230.028 90.0015L230.336 90.32L231.03 91.1832Z" fill="#FFE09C"/>
<path d="M226.437 66.6148C226.437 66.6148 220.035 69.6068 218.495 72.8585C218.495 72.8585 217.057 75.5949 216.876 77.0489C216.876 77.0489 216.455 78.3773 219.109 78.7042C219.109 78.7042 220.316 73.8223 223.938 71.702L227.564 69.5858L226.437 66.6148Z" fill="#E7C4C3"/>
<path d="M228.105 74.1257C228.417 72.9651 227.87 71.8106 226.883 71.5471C225.896 71.2835 224.843 72.0107 224.53 73.1713C224.218 74.3319 224.765 75.4864 225.752 75.75C226.739 76.0135 227.792 75.2863 228.105 74.1257Z" fill="#FF7F8E"/>
<path d="M227.41 81.7124C227.719 80.5563 227.173 79.4075 226.19 79.1465C225.207 78.8855 224.159 79.6111 223.85 80.7673C223.54 81.9234 224.087 83.0723 225.07 83.3332C226.053 83.5942 227.101 82.8686 227.41 81.7124Z" fill="#FF7F8E"/>
<path d="M221.599 81.1891C221.935 81.0534 222.233 80.8401 222.469 80.5669C222.705 80.2936 222.873 79.9682 222.958 79.6177C223.269 78.4611 222.722 77.3088 221.738 77.049C220.754 76.7892 219.706 77.5141 219.399 78.6706C219.375 78.7488 219.357 78.8286 219.345 78.9095L219.542 79.0352L221.599 81.1891Z" fill="#FF7F8E"/>
<path d="M229.419 78.3941C229.649 78.4522 229.89 78.4609 230.124 78.4198C230.358 78.3786 230.581 78.2884 230.777 78.1552L229.608 74.2414C229.26 74.3702 228.948 74.5824 228.702 74.8594C228.455 75.1364 228.281 75.4696 228.195 75.8295C227.888 76.9987 228.434 78.1343 229.419 78.3941Z" fill="#FF7F8E"/>
<path d="M230.096 85.1658C230.39 85.2349 230.697 85.2281 230.988 85.146C231.278 85.0638 231.543 84.9091 231.757 84.6964C231.593 83.3723 231.417 82.0523 231.274 80.9963H231.219C230.235 80.7323 229.187 81.4615 228.876 82.618C228.565 83.7745 229.116 84.906 230.096 85.1658Z" fill="#FF7F8E"/>
<path d="M230.029 89.9889C230.149 89.786 230.241 89.5674 230.302 89.3394C230.613 88.1829 230.066 87.0347 229.082 86.7749C228.784 86.703 228.473 86.7092 228.178 86.7929C227.883 86.8766 227.615 87.035 227.4 87.2526L230.029 89.9889Z" fill="#FF7F8E"/>
<path d="M227.139 72.4646L227.812 72.6448C227.547 73.1297 227.391 73.6657 227.353 74.2162C227.352 74.2525 227.352 74.2889 227.353 74.3252C227.442 75.0166 226.68 74.145 226.68 74.145C226.68 74.145 226.811 72.7244 227.139 72.4646Z" fill="#94CC79"/>
<path d="M224.073 76.7892L224.75 76.9693C224.483 77.4518 224.327 77.9869 224.291 78.5366C224.289 78.5729 224.289 78.6092 224.291 78.6455C224.38 79.3369 223.618 78.4653 223.618 78.4653C223.618 78.4653 223.744 77.0448 224.073 76.7892Z" fill="#94CC79"/>
<path d="M226.167 78.2181L226.84 78.3941C226.576 78.8789 226.419 79.4149 226.382 79.9655C226.38 80.0018 226.38 80.0381 226.382 80.0744C226.474 80.7658 225.709 79.8942 225.709 79.8942C225.709 79.8942 225.848 78.4737 226.167 78.2181Z" fill="#94CC79"/>
<path d="M228.859 81.826L229.536 82.002C229.27 82.4861 229.113 83.0225 229.078 83.5734C229.076 83.6097 229.076 83.6461 229.078 83.6824C229.166 84.3738 228.405 83.5022 228.405 83.5022C228.405 83.5022 228.535 82.0816 228.859 81.826Z" fill="#94CC79"/>
<path d="M230.537 87.7638L231.21 87.944C230.946 88.4276 230.79 88.9621 230.752 89.5112C230.75 89.5475 230.75 89.5839 230.752 89.6202C230.844 90.3116 230.079 89.4442 230.079 89.4442C230.079 89.4442 230.209 88.0194 230.537 87.7638Z" fill="#94CC79"/>
<path d="M226.887 83.6111L227.56 83.7913C227.294 84.2811 227.14 84.8235 227.11 85.3795C227.107 85.4158 227.107 85.4521 227.11 85.4884C227.198 86.1798 226.437 85.3124 226.437 85.3124C226.437 85.3124 226.563 83.8667 226.887 83.6111Z" fill="#94CC79"/>
<path d="M228.519 67.168C228.519 67.168 227.555 64.9932 226.415 66.6148C226.511 67.9315 226.946 69.2014 227.677 70.3024C227.677 70.3024 231.164 79.7517 230.874 81.1974C230.874 81.1974 232.249 90.3241 231.909 90.8354C231.909 90.8354 232.287 91.4807 232.556 89.0544C232.826 86.6282 231.644 79.5003 231.644 79.5003L229.915 72.0917L228.758 69.5775L228.519 67.168Z" fill="#E7C4C3"/>
<path opacity="0.2" d="M228.519 67.168C228.519 67.168 227.555 64.9932 226.415 66.6148C226.511 67.9315 226.946 69.2014 227.677 70.3024C227.677 70.3024 231.164 79.7517 230.874 81.1974C230.874 81.1974 232.249 90.3241 231.909 90.8354C231.909 90.8354 232.287 91.4807 232.556 89.0544C232.826 86.6282 231.644 79.5003 231.644 79.5003L229.915 72.0917L228.758 69.5775L228.519 67.168Z" fill="white"/>
<path d="M216.951 70.7717C216.951 70.7717 218.68 75.7332 220.262 74.4132L219 67.9306L216.951 70.7717Z" fill="#FBBEBE"/>
<path d="M98.7152 91.1497C98.7152 91.1497 113.963 116.74 117.525 120.16C117.525 120.16 132.76 135.916 125.017 134.826C124.449 134.747 113.298 125.356 112.646 123.814C111.994 122.272 90.9127 94.9881 90.9127 94.9881L93.9201 92.2308L98.7152 91.1497Z" fill="#A0616A"/>
<path opacity="0.1" d="M98.7152 91.1497C98.7152 91.1497 113.963 116.74 117.525 120.16C117.525 120.16 132.76 135.916 125.017 134.826C124.449 134.747 113.298 125.356 112.646 123.814C111.994 122.272 90.9127 94.9881 90.9127 94.9881L93.9201 92.2308L98.7152 91.1497Z" fill="black"/>
<path d="M112.659 174.727C112.659 174.727 107.78 180.803 109.815 183.234C111.851 185.664 121.992 190.311 125.265 190.119C128.722 189.918 140.31 190.538 140.718 185.258C140.718 185.258 141.53 182.827 130.96 182.421C120.39 182.014 123.637 171.077 123.637 171.077L112.659 174.727Z" fill="#2F2E41"/>
<path d="M54.5122 123.277C54.5122 123.277 49.633 139.884 64.2706 142.721L80.128 141.912C80.128 141.912 102.492 137.454 108.596 140.697C108.596 140.697 111.035 141.116 110.219 144.343C109.403 147.569 111.439 169.46 111.439 169.46V176.751C111.439 176.751 125.265 176.751 126.893 175.13C126.893 175.13 125.673 168.647 126.893 163.396C128.112 158.146 124.861 141.518 124.861 141.518L124.537 131.541C124.512 130.305 124.158 129.097 123.509 128.042C122.861 126.988 121.942 126.124 120.848 125.54C120.079 125.135 119.224 124.918 118.354 124.908C118.354 124.908 90.7024 120.453 80.944 121.262C71.1856 122.071 54.5122 123.277 54.5122 123.277Z" fill="#605D82"/>
<path d="M81.7558 70.206C81.7558 70.206 89.0746 78.7125 89.8864 81.5494C90.6982 84.3863 99.6616 91.6651 99.6616 91.6651C99.6616 91.6651 93.1546 96.5259 94.3744 98.9564C95.5942 101.387 85.8358 90.8563 85.8358 90.8563L74.4244 74.2581L81.7558 70.206Z" fill="#FFBA3127"/>
<path d="M86.6224 60.4843C86.6224 60.4843 82.963 72.2174 82.963 76.6886C82.963 81.1597 67.5094 75.4734 67.9174 73.0429C68.3254 70.6125 76.864 61.6995 77.272 58.0539C77.68 54.4082 86.6224 60.4843 86.6224 60.4843Z" fill="#A0616A"/>
<path opacity="0.1" d="M74.4244 68.5843C74.4244 68.5843 60.1906 64.9387 58.159 85.6016C56.1274 106.264 59.7826 108.691 53.6836 121.249C47.5846 133.808 95.1609 122.871 95.1609 122.871C95.1609 122.871 92.7214 120.034 84.9946 121.249L81.3352 110.312C81.3352 110.312 80.1154 105.451 87.0304 105.451C93.9454 105.451 90.6898 91.2712 90.6898 91.2712C90.6898 91.2712 87.0304 79.119 84.9946 77.9038C82.9588 76.6886 79.3162 69.3973 74.4244 68.5843Z" fill="black"/>
<path d="M74.4244 67.7798C74.4244 67.7798 60.1906 64.1341 58.159 84.7928C56.1274 105.451 59.7826 107.886 53.6836 120.445C47.5846 133.003 95.1609 122.066 95.1609 122.066C95.1609 122.066 92.7214 119.23 84.9946 120.445L81.3352 109.508C81.3352 109.508 80.128 104.655 87.043 104.655C93.958 104.655 90.7024 90.475 90.7024 90.475C90.7024 90.475 87.043 78.3228 85.0072 77.1076C82.9714 75.8924 79.3162 68.5843 74.4244 67.7798Z" fill="#FFBA3127"/>
<path d="M82.9756 67.7756C90.386 67.7756 96.3934 61.7908 96.3934 54.4082C96.3934 47.0256 90.386 41.0408 82.9756 41.0408C75.5651 41.0408 69.5578 47.0256 69.5578 54.4082C69.5578 61.7908 75.5651 67.7756 82.9756 67.7756Z" fill="#A0616A"/>
<path d="M80.3846 122.854L114.106 142.935L145.48 113.811L108.078 100.834L81.1627 119.087L80.3846 122.854Z" fill="#DADAE5"/>
<path d="M120.179 66.6442L109.685 97.737L144.479 107.706L159.331 65.6594L120.179 66.6442Z" fill="#DADAE5"/>
<path opacity="0.03" d="M117.378 64.3478L120.226 66.9417L159.377 65.957L160.277 63.4092L117.378 64.3478Z" fill="black"/>
<path opacity="0.03" d="M107.043 95.9476L117.378 64.3478L120.226 66.9417L109.996 97.2551L107.043 95.9476Z" fill="black"/>
<path d="M117.332 64.0503L120.179 66.6442L159.331 65.6594L160.231 63.1117L117.332 64.0503Z" fill="#EFF0F4"/>
<path d="M106.997 95.6543L117.332 64.0503L120.179 66.6442L109.95 96.9575L106.997 95.6543Z" fill="#EFF0F4"/>
<path opacity="0.03" d="M117.332 64.0503L121.685 68.1066L160.841 67.1219L160.231 63.1117L117.332 64.0503Z" fill="black"/>
<path opacity="0.03" d="M106.997 95.6543L117.332 64.0503L121.685 68.1066L111.456 98.42L106.997 95.6543Z" fill="black"/>
<path opacity="0.03" d="M107.065 96.0985L108.015 102.112L145.648 115.127L144.55 108.15L107.065 96.0985Z" fill="black"/>
<path opacity="0.03" d="M79.2447 115.86L107.065 96.0985L108.28 102.108L80.9524 122.356L79.2447 115.86Z" fill="black"/>
<path d="M106.997 95.6543L107.813 100.838L145.446 113.853L144.479 107.706L106.997 95.6543Z" fill="#EFF0F4"/>
<path d="M79.1732 115.412L106.997 95.6543L108.078 100.834L80.7505 121.082L79.1732 115.412Z" fill="#EFF0F4"/>
<path opacity="0.03" d="M106.997 95.6543L107.813 100.838L145.446 113.853L144.479 107.706L106.997 95.6543Z" fill="black"/>
<path opacity="0.03" d="M79.1732 115.412L106.997 95.6543L108.078 100.834L80.7505 121.082L79.1732 115.412Z" fill="black"/>
<path d="M79.1732 115.412L80.4309 122.884L114.059 142.901L113.231 135.212L79.1732 115.412Z" fill="#CCCAD6"/>
<path d="M94.4964 114.23C94.4964 114.23 93.9117 115.341 94.8034 115.852C95.224 116.095 98.2651 116.69 101.319 117.26C102.816 117.537 104.318 117.805 105.525 118.014C106.997 118.274 108.015 118.433 108.015 118.433H108.789L113.466 118.521L117.866 118.605L119.729 118.224L118.657 110.941L113.088 104.844L111.923 105.824L111.725 105.992L108.663 107.476L100.023 111.666L96.1368 113.552L95.6825 113.774L94.4964 114.23Z" fill="#FFE09C"/>
<path d="M122.876 117.746C122.876 117.746 121.828 109.784 118.808 106.994C118.808 106.994 116.327 104.479 114.8 103.792C114.8 103.792 113.5 102.874 112.221 105.64C112.221 105.64 117.13 108.632 118.19 113.288L119.246 117.943L122.876 117.746Z" fill="#E7C4C3"/>
<path d="M116.972 114.904C117.598 113.929 117.168 112.543 116.013 111.808C114.858 111.073 113.415 111.267 112.79 112.242C112.164 113.218 112.594 114.604 113.749 115.339C114.904 116.074 116.347 115.88 116.972 114.904Z" fill="#FF7F8E"/>
<path d="M109.3 113.175C109.925 112.2 109.496 110.814 108.341 110.079C107.186 109.343 105.742 109.538 105.117 110.513C104.492 111.488 104.921 112.875 106.076 113.61C107.231 114.345 108.675 114.15 109.3 113.175Z" fill="#FF7F8E"/>
<path d="M108.663 107.48C108.695 107.892 108.827 108.29 109.047 108.641C109.266 108.992 109.568 109.285 109.925 109.495C111.077 110.229 112.52 110.036 113.142 109.076C113.765 108.117 113.34 106.717 112.183 105.984C112.104 105.934 112.023 105.887 111.939 105.845L111.742 106.013L108.663 107.48Z" fill="#FF7F8E"/>
<path d="M108.999 116.904C108.856 117.134 108.763 117.391 108.726 117.658C108.689 117.926 108.709 118.199 108.785 118.458L113.462 118.546C113.444 118.12 113.319 117.705 113.099 117.339C112.878 116.973 112.57 116.668 112.2 116.451C111.065 115.735 109.622 115.932 108.999 116.904Z" fill="#FF7F8E"/>
<path d="M101.378 115.299C101.2 115.593 101.101 115.928 101.091 116.272C101.08 116.615 101.159 116.956 101.319 117.26C102.816 117.537 104.318 117.805 105.525 118.014L105.563 117.96C106.185 116.988 105.756 115.601 104.604 114.867C103.451 114.134 102.004 114.327 101.378 115.299Z" fill="#FF7F8E"/>
<path d="M96.1368 113.56C96.3169 113.76 96.5235 113.935 96.7509 114.08C97.9034 114.813 99.3461 114.62 99.9686 113.66C100.148 113.365 100.247 113.028 100.256 112.683C100.266 112.338 100.186 111.996 100.023 111.691L96.1368 113.56Z" fill="#FF7F8E"/>
<path d="M116.251 116.485L115.83 117.151C115.394 116.698 114.865 116.345 114.278 116.116L114.156 116.087C113.37 115.944 114.577 115.42 114.577 115.42C114.577 115.42 116.087 116.045 116.251 116.485Z" fill="#94CC79"/>
<path d="M112.596 111.674L112.175 112.345C111.74 111.89 111.21 111.535 110.623 111.306L110.501 111.276C109.719 111.138 110.922 110.61 110.922 110.61C110.922 110.61 112.432 111.234 112.596 111.674Z" fill="#94CC79"/>
<path d="M110.316 113.455L109.895 114.121C109.46 113.668 108.93 113.315 108.343 113.086L108.221 113.057C107.435 112.915 108.642 112.391 108.642 112.391C108.642 112.391 110.148 113.007 110.316 113.455Z" fill="#94CC79"/>
<path d="M105.449 115.131L105.029 115.802C104.594 115.347 104.064 114.992 103.477 114.763L103.355 114.733C102.568 114.595 103.775 114.067 103.775 114.067C103.775 114.067 105.281 114.675 105.449 115.131Z" fill="#94CC79"/>
<path d="M98.3997 114.88L97.9791 115.55C97.5421 115.096 97.0111 114.741 96.4228 114.511L96.3008 114.482C95.5185 114.344 96.7215 113.816 96.7215 113.816C96.7215 113.816 98.2273 114.436 98.3997 114.88Z" fill="#94CC79"/>
<path d="M104.183 112.366L103.763 113.032C103.327 112.577 102.798 112.222 102.211 111.993L102.089 111.963C101.302 111.825 102.509 111.297 102.509 111.297C102.509 111.297 104.015 111.921 104.183 112.366Z" fill="#94CC79"/>
<path d="M121.534 119.812C121.534 119.812 124.238 119.519 122.859 117.746C121.394 117.39 119.861 117.416 118.409 117.822C118.409 117.822 106.896 118.333 105.403 117.511C105.403 117.511 94.9717 115.835 94.5511 115.307C94.5511 115.307 93.7098 115.492 96.2672 116.623C98.8245 117.755 107.006 118.936 107.006 118.936L115.683 119.623L118.804 119.238L121.534 119.812Z" fill="#E7C4C3"/>
<path opacity="0.2" d="M121.534 119.812C121.534 119.812 124.238 119.519 122.859 117.746C121.394 117.39 119.861 117.416 118.409 117.822C118.409 117.822 106.896 118.333 105.403 117.511C105.403 117.511 94.9717 115.835 94.5511 115.307C94.5511 115.307 93.7098 115.492 96.2672 116.623C98.8245 117.755 107.006 118.936 107.006 118.936L115.683 119.623L118.804 119.238L121.534 119.812Z" fill="white"/>
<path d="M113.332 115.701C113.205 116.093 113.175 116.51 113.243 116.916C113.311 117.322 113.476 117.705 113.723 118.035C114.514 119.146 115.923 119.506 116.873 118.84C117.824 118.174 117.946 116.745 117.151 115.613C117.096 115.538 117.037 115.462 116.979 115.391L116.726 115.475L113.332 115.701Z" fill="#FF7F8E"/>
<path d="M113.231 135.212L144.479 107.706L145.438 113.778L114.059 142.901L113.231 135.212Z" fill="#CCCAD6"/>
<path d="M148.533 109.273L144.479 107.706L160.231 63.1117L163.234 65.2236L148.533 109.273Z" fill="#CCCAD6"/>
<g opacity="0.1">
<path opacity="0.1" d="M123.174 174.27C123.206 173.192 123.362 172.12 123.641 171.077L123.435 171.149C123.233 172.177 123.146 173.223 123.174 174.27Z" fill="white"/>
<path opacity="0.1" d="M125.265 189.301C121.992 189.494 111.847 184.843 109.815 182.412C109.547 182.085 109.383 181.685 109.344 181.264C109.284 181.606 109.295 181.956 109.376 182.293C109.457 182.631 109.607 182.948 109.815 183.225C111.847 185.656 121.992 190.303 125.265 190.11C128.722 189.909 140.31 190.529 140.718 185.249C140.747 185.107 140.727 184.96 140.664 184.83C139.73 189.683 128.634 189.113 125.265 189.301Z" fill="white"/>
</g>
<path d="M137.147 90.9862C137.147 90.9862 137.871 90.1481 137.215 89.5447C136.899 89.2514 134.426 88.1284 131.936 87.0305C130.712 86.4941 129.479 85.9661 128.499 85.5471L126.459 84.6797L125.799 84.512L121.824 83.5022L118.085 82.5509L116.402 82.5049L115.839 88.9539L119.368 95.273L120.554 94.6696L120.76 94.5648L123.675 93.9111L131.911 92.0841L135.608 91.246L136.028 91.1496L137.147 90.9862Z" fill="#FFE09C"/>
<path d="M113.626 82.3079C113.626 82.3079 112.915 89.3143 114.93 92.302C114.93 92.302 116.545 94.9336 117.706 95.8387C117.706 95.8387 118.632 96.8779 120.285 94.7744C120.285 94.7744 116.692 91.2377 116.73 87.0514L116.764 82.861L113.626 82.3079Z" fill="#E7C4C3"/>
<path d="M121.126 89.0577C121.856 88.3511 121.769 87.0829 120.932 86.2249C120.094 85.367 118.824 85.2443 118.095 85.9509C117.365 86.6574 117.452 87.9257 118.29 88.7836C119.127 89.6416 120.397 89.7642 121.126 89.0577Z" fill="#FF7F8E"/>
<path d="M127.331 92.0651C128.061 91.3586 127.973 90.0903 127.136 89.2324C126.299 88.3745 125.029 88.2517 124.299 88.9583C123.57 89.6649 123.657 90.9331 124.494 91.7911C125.331 92.649 126.601 92.7717 127.331 92.0651Z" fill="#FF7F8E"/>
<path d="M123.692 93.9153C123.748 93.5587 123.717 93.1939 123.603 92.8514C123.489 92.5088 123.294 92.1984 123.035 91.9458C122.194 91.1077 120.932 90.9653 120.196 91.6734C119.46 92.3816 119.557 93.6471 120.394 94.5062C120.45 94.5652 120.509 94.6212 120.571 94.6738L120.777 94.569L123.692 93.9153Z" fill="#FF7F8E"/>
<path d="M125.319 85.7985C125.488 85.631 125.619 85.4297 125.704 85.2079C125.789 84.9862 125.826 84.749 125.812 84.5121L121.837 83.5022C121.768 83.8662 121.791 84.2416 121.903 84.5947C122.016 84.9478 122.214 85.2678 122.48 85.5261C123.305 86.3894 124.575 86.5109 125.319 85.7985Z" fill="#FF7F8E"/>
<path d="M131.486 88.6983C131.699 88.4808 131.852 88.2123 131.931 87.9188C132.009 87.6253 132.011 87.3165 131.936 87.0221C130.712 86.4857 129.479 85.9578 128.499 85.5387L128.453 85.5764C127.725 86.2846 127.814 87.5543 128.651 88.4133C129.488 89.2724 130.758 89.4065 131.486 88.6983Z" fill="#FF7F8E"/>
<path d="M135.608 91.246C135.496 91.0378 135.355 90.8472 135.187 90.6803C134.346 89.8213 133.084 89.6998 132.352 90.408C132.138 90.6248 131.985 90.8933 131.906 91.1872C131.828 91.4811 131.828 91.7902 131.906 92.0841L135.608 91.246Z" fill="#FF7F8E"/>
<path d="M119.01 84.709L119.511 84.2271C119.793 84.701 120.174 85.1084 120.63 85.4214L120.726 85.4717C121.37 85.7482 120.226 85.9536 120.226 85.9536C120.226 85.9536 119.082 85.1197 119.01 84.709Z" fill="#94CC79"/>
<path d="M121.181 89.5699L121.677 89.0838C121.958 89.5592 122.34 89.9681 122.796 90.2822L122.892 90.3283C123.536 90.6091 122.392 90.8144 122.392 90.8144C122.392 90.8144 121.231 89.9554 121.181 89.5699Z" fill="#94CC79"/>
<path d="M123.481 88.4929L123.982 88.0068C124.263 88.4823 124.645 88.8912 125.101 89.2053L125.197 89.2514C125.841 89.5322 124.697 89.7375 124.697 89.7375C124.697 89.7375 123.536 88.9036 123.481 88.4929Z" fill="#94CC79"/>
<path d="M127.974 88.0404L128.474 87.5543C128.755 88.0288 129.135 88.4376 129.589 88.7527L129.69 88.803C130.329 89.0796 129.189 89.2849 129.189 89.2849C129.189 89.2849 128.028 88.451 127.974 88.0404Z" fill="#94CC79"/>
<path d="M133.951 89.6579L134.451 89.1718C134.73 89.6476 135.111 90.0567 135.566 90.3702L135.667 90.4163C136.306 90.6971 135.166 90.9024 135.166 90.9024C135.166 90.9024 134.005 90.0643 133.951 89.6579Z" fill="#94CC79"/>
<path d="M128.499 90.6426L129 90.1607C129.282 90.6346 129.664 91.042 130.119 91.355C130.149 91.3759 130.181 91.3928 130.215 91.4053C130.859 91.6818 129.715 91.8913 129.715 91.8913C129.715 91.8913 128.554 91.0533 128.499 90.6426Z" fill="#94CC79"/>
<path d="M115.174 80.8077C115.174 80.8077 112.806 80.5186 113.626 82.3079C114.805 82.9077 116.118 83.1962 117.441 83.146C117.441 83.146 127.372 85.0149 128.482 86.0122C128.482 86.0122 137.05 89.5238 137.315 90.0686C137.315 90.0686 138.068 90.0685 136.117 88.5977C134.165 87.1269 127.422 84.466 127.422 84.466L120.154 82.1403L117.412 81.8428L115.174 80.8077Z" fill="#E7C4C3"/>
<path opacity="0.2" d="M115.174 80.8077C115.174 80.8077 112.806 80.5186 113.626 82.3079C114.805 82.9077 116.118 83.1962 117.441 83.146C117.441 83.146 127.372 85.0149 128.482 86.0122C128.482 86.0122 137.05 89.5238 137.315 90.0686C137.315 90.0686 138.068 90.0685 136.117 88.5977C134.165 87.1269 127.422 84.466 127.422 84.466L120.154 82.1403L117.412 81.8428L115.174 80.8077Z" fill="white"/>
<path d="M103.064 90.5672C104.272 89.9356 105.366 89.107 106.299 88.1158C106.72 87.6214 107.073 87.064 107.506 86.5779C108.598 85.4155 110.017 84.6092 111.578 84.2648C113.126 83.9262 114.709 83.7729 116.293 83.8081C117.353 83.7408 118.417 83.8686 119.431 84.1852C119.938 84.3505 120.395 84.6413 120.758 85.0305C121.121 85.4197 121.38 85.8945 121.509 86.4103C121.74 87.6674 120.916 88.8868 119.927 89.6956C119.007 90.4438 117.923 90.9675 116.764 91.2251C115.819 91.388 114.865 91.4985 113.908 91.5561C108.28 92.1428 103.258 95.1934 98.345 97.9716C94.0126 100.415 91.5562 100.302 87.0598 102.422C86.8831 101.081 84.8473 102.12 84.8768 100.767C84.902 99.7568 84.9525 98.2147 85.9115 97.6196C87.0261 96.9282 88.8558 96.7816 90.1177 96.3625C93.0168 95.4155 95.8484 94.2745 98.5932 92.9474C100.11 92.207 101.601 91.4137 103.064 90.5672Z" fill="#A0616A"/>
<path opacity="0.1" d="M65.8984 86.8168L87.4636 106.26C87.4636 106.26 91.531 98.1602 92.7508 98.1602C93.9706 98.1602 78.1132 74.2749 78.1132 74.2749C78.1132 74.2749 74.0458 69.414 71.6062 71.8445C69.1666 74.2749 61.831 72.6365 65.8984 86.8168Z" fill="black"/>
<path d="M65.4904 86.008L87.043 105.451C87.043 105.451 91.1104 97.3473 92.3302 97.3473C93.55 97.3473 77.6884 73.462 77.6884 73.462C77.6884 73.462 73.621 68.5969 71.1814 71.0273C68.7418 73.4578 61.423 71.8277 65.4904 86.008Z" fill="#FFBA3127"/>
<path d="M100.974 51.7347C101.445 51.2132 101.827 50.6188 102.105 49.9748C103.965 45.7844 101.016 40.5212 95.9812 39.0797C93.4575 38.3464 90.6309 38.4931 88.1114 37.7136C86.084 37.0893 84.3763 35.9076 82.5172 34.9857C79.0235 33.2708 75.1579 32.4445 71.2656 32.5804C67.459 32.7145 63.3201 34.047 61.7596 36.9761C59.4798 41.242 63.6734 46.614 61.1328 50.7667C59.2653 53.8174 54.7352 54.7183 50.9791 56.0425C47.0904 57.3823 43.55 59.5682 40.615 62.4412C37.6706 65.3745 35.5676 69.3973 37.0481 73.0346C37.9104 75.1675 39.8579 76.8352 41.4058 78.6748C43.9882 81.6933 45.4988 85.4763 45.7034 89.4372C45.908 93.3982 44.7951 97.3157 42.5372 100.582C41.8138 101.617 40.9683 102.627 40.6697 103.8C39.9546 106.6 42.8401 109.416 46.1756 109.96C49.5111 110.505 52.9728 109.265 55.568 107.434C57.964 105.788 59.8925 103.554 61.1665 100.947C64.2496 94.4349 62.0834 87.1185 61.7764 80.108C61.7385 79.2908 61.7764 78.4025 62.3526 77.7613C63.2443 76.8017 64.9268 76.8269 66.3654 76.7012C70.0878 76.3743 73.5159 74.2959 75.0932 71.4296C78.1091 65.9151 74.5969 58.2089 79.8673 54.0604C86.5004 48.8392 96.0485 57.0942 100.974 51.7347Z" fill="#3F3D56"/>
<path opacity="0.1" d="M95.9811 39.0629H95.9391C97.9076 41.3341 98.6479 44.4015 97.4786 47.0498C97.1999 47.6939 96.8177 48.2883 96.3471 48.8098C91.4216 54.1693 81.8736 45.9143 75.2404 51.1355C69.97 55.284 73.4822 62.9901 70.4663 68.5047C68.9016 71.371 65.461 73.4494 61.7385 73.7762C60.3 73.902 58.6175 73.8768 57.7258 74.8364C57.1327 75.4775 57.1117 76.3659 57.1495 77.183C57.4566 84.1936 59.6228 91.51 56.5396 98.0219C55.2657 100.629 53.3372 102.863 50.9412 104.509C48.3459 106.331 44.8884 107.589 41.5487 107.044L41.3174 106.994C41.8877 107.787 42.611 108.46 43.4452 108.972C44.2793 109.485 45.2075 109.826 46.1755 109.977C49.5153 110.518 52.9517 109.261 55.568 107.434C57.964 105.788 59.8925 103.553 61.1664 100.947C64.2496 94.4349 62.0834 87.1185 61.7763 80.1079C61.7385 79.2908 61.7763 78.4024 62.3526 77.7613C63.2443 76.8017 64.9268 76.8269 66.3653 76.7011C70.0878 76.3743 73.5158 74.2958 75.0932 71.4296C78.109 65.915 74.5968 58.2089 79.8672 54.0604C86.5004 48.8392 96.0484 57.0942 100.974 51.7347C101.445 51.2132 101.827 50.6188 102.105 49.9748C103.965 45.7718 101.016 40.5422 95.9811 39.0629Z" fill="black"/>
</svg>