<svg width="226" height="175" viewBox="0 0 226 175" fill="none" xmlns="http://www.w3.org/2000/svg">
<g clip-path="url(#clip0_502_5)">
<path d="M100.389 39.7924C91.087 39.7997 81.8492 38.2485 73.0592 35.2034C61.2751 31.1278 51.6213 25.5063 44.3661 18.495C30.6422 5.2323 19.3906 3.23355 12.3698 3.89169C4.76986 4.60445 0.346107 8.49735 0.302333 8.5366L0 8.19946C0.0446575 8.15933 4.55961 4.17808 12.2982 3.44353C16.8362 3.01307 21.5819 3.76309 26.4037 5.67349C32.4167 8.05582 38.566 12.26 44.6807 18.1692C51.8882 25.1344 61.4858 30.7216 73.2071 34.7752C94.7247 42.2169 118.976 40.4152 139.743 29.8319C146.618 26.3275 153.414 23.9356 159.94 22.7225C168.17 21.1923 175.976 21.5475 183.141 23.7774C198.886 28.6773 209.64 28.4174 215.89 27.3371C222.632 26.1713 225.692 23.8382 225.722 23.8147L226 24.1722C225.873 24.2707 222.82 26.5985 215.967 27.7834C209.668 28.8725 198.836 29.1364 183.006 24.2097C166.978 19.2221 150.744 24.7333 139.948 30.2353C129.684 35.4941 118.476 38.6568 106.978 39.5392C104.774 39.708 102.578 39.7924 100.389 39.7924Z" fill="#3F3D56"/>
<path d="M99.4753 45.4125C102.009 45.4125 104.064 43.3575 104.064 40.8227C104.064 38.2878 102.009 36.2329 99.4753 36.2329C96.9412 36.2329 94.887 38.2878 94.887 40.8227C94.887 43.3575 96.9412 45.4125 99.4753 45.4125Z" fill="#FFBA3127"/>
<path d="M170.562 27.0697C173.096 27.0697 175.15 25.0148 175.15 22.4799C175.15 19.945 173.096 17.8901 170.562 17.8901C168.027 17.8901 165.973 19.945 165.973 22.4799C165.973 25.0148 168.027 27.0697 170.562 27.0697Z" fill="#FFBA3127"/>
<path d="M22.7295 9.17954C25.2636 9.17954 27.3179 7.12463 27.3179 4.58977C27.3179 2.05491 25.2636 0 22.7295 0C20.1954 0 18.1411 2.05491 18.1411 4.58977C18.1411 7.12463 20.1954 9.17954 22.7295 9.17954Z" fill="#FFBA3127"/>
<path d="M132.379 109.715V154.061H139.35V113.619H167.232V154.061H174.203V65.3682H167.232C164.923 65.3682 161.377 77.4018 161.377 89.4937C161.377 98.6081 162.441 106.419 163.954 109.715H132.379ZM167.232 109.715H167.165C167.187 109.665 167.21 109.613 167.232 109.561V109.715Z" fill="#3F3D56"/>
<path d="M158.211 43.4185C152.489 43.4185 147.851 48.5676 147.851 54.9194V62.9894H150.332L151.768 59.9994L151.409 62.9894H167.357L168.663 60.2712L168.337 62.9894H170.132V56.653C170.132 49.3438 164.795 43.4185 158.211 43.4185Z" fill="#2F2E41"/>
<path d="M146.34 96.1436L139.979 98.8478L117.874 116.823C117.062 117.822 116.564 119.04 116.443 120.323C116.284 122.391 109.605 133.208 111.991 134.639C114.376 136.071 122.963 140.366 123.44 137.503C123.917 134.639 126.462 122.391 126.462 122.391L147.771 103.302L146.34 96.1436Z" fill="#2F2E41"/>
<path d="M121.373 135.116L118.67 143.07C118.67 143.07 121.532 146.092 120.101 148.638V157.387H117.874L117.238 152.773C117.238 152.773 114.703 157.328 113.422 157.387C110.737 157.509 105.42 158.464 105.261 157.032C105.102 155.601 109.287 154.205 109.287 154.205L113.74 141.956L115.648 134.48L121.373 135.116Z" fill="#2F2E41"/>
<path d="M162.879 94.0755C162.879 94.0755 164.31 108.074 160.175 110.619C156.04 113.164 137.753 121.277 137.753 121.277C137.753 121.277 145.545 128.594 143.955 130.344C142.364 132.094 135.208 136.866 134.254 135.912C133.3 134.957 122.645 123.504 123.917 119.845C125.19 116.187 142.841 104.256 142.841 104.256L144.909 96.7797L145.545 90.7349L152.224 86.4399L162.879 94.0755Z" fill="#2F2E41"/>
<path d="M155.593 61.4832C159.254 61.4832 162.222 58.5142 162.222 54.8517C162.222 51.1892 159.254 48.2202 155.593 48.2202C151.932 48.2202 148.963 51.1892 148.963 54.8517C148.963 58.5142 151.932 61.4832 155.593 61.4832Z" fill="#FFB9B9"/>
<path d="M160.732 57.5679C160.732 57.5679 160.414 63.6127 165.344 65.5215C170.273 67.4304 153.099 79.8381 153.099 79.8381V65.9987C153.099 65.9987 155.325 63.6127 153.099 59.954L160.732 57.5679Z" fill="#FFB9B9"/>
<path d="M171.307 85.9624L170.035 92.1663L166.218 113.482C166.218 113.482 169.399 122.549 165.105 122.39C160.811 122.231 162.879 112.528 162.879 112.528L165.105 94.8705V88.0304L171.307 85.9624Z" fill="#FFB9B9"/>
<path d="M143.955 82.9404L142.523 88.508L136.003 104.256C136.003 104.256 131.551 111.733 135.208 111.574C138.866 111.415 138.866 104.256 138.866 104.256L146.34 91.5304V84.3721L143.955 82.9404Z" fill="#FFB9B9"/>
<path d="M142.841 129.39L148.089 134.321C148.089 134.321 151.747 133.526 153.178 137.821C154.609 142.116 155.563 144.82 155.563 144.82L153.655 145.933L151.27 142.593C151.27 142.593 149.838 148.638 148.407 149.115C146.976 149.592 139.82 152.773 140.456 149.115L143.954 144.024C143.954 144.024 144.432 138.298 143 137.821C141.569 137.343 137.752 132.571 137.752 132.571L142.841 129.39Z" fill="#2F2E41"/>
<path d="M163.131 99.0066C163.131 99.0066 148.182 93.5981 147.228 94.0753C146.518 94.3892 145.761 94.5856 144.988 94.6568L145.002 92.4846C145.002 92.4846 149.932 90.7348 152.635 91.8483C155.339 92.9618 163.608 97.8931 163.608 97.8931L163.131 99.0066Z" fill="#3F3D56"/>
<path d="M154.053 76.6569C154.053 76.6569 158.346 71.7257 159.619 68.7033C160.423 66.871 161.901 65.4178 163.746 64.6436C163.746 64.6436 173.295 66.7944 173.136 70.6121C172.977 74.4299 167.093 80.3156 167.093 80.3156C167.093 80.3156 167.888 101.472 163.594 101.154C162.668 100.049 162.014 98.741 161.686 97.3365C161.209 95.1095 146.419 92.7234 146.419 92.7234C146.419 92.7234 145.147 94.9504 144.988 93.9959C144.829 93.0415 146.26 69.6577 146.26 69.6577L153.844 64.6436L154.053 76.6569Z" fill="#D0CDE1"/>
<path d="M171.911 69.0752L172.017 69.135C172.357 69.3258 172.64 69.6037 172.837 69.9401C173.034 70.2765 173.138 70.6593 173.138 71.0492L173.136 82.8545C173.137 83.1754 173.208 83.4921 173.344 83.7828C173.48 84.0736 173.677 84.3312 173.923 84.538C174.535 85.0592 175.103 85.8102 173.931 86.2011C172.023 86.8374 164.548 90.0189 164.389 88.9054C164.23 87.7919 163.912 86.5193 164.389 86.5193C164.763 86.5193 166.988 75.1124 168.776 70.2352C168.886 69.9367 169.058 69.6654 169.283 69.4401C169.507 69.2149 169.778 69.0411 170.076 68.9308C170.374 68.8205 170.692 68.7763 171.009 68.8012C171.326 68.8261 171.634 68.9196 171.911 69.0752Z" fill="#D0CDE1"/>
<path d="M148.407 69.1011L146.181 69.7374L143.636 80.7134C143.636 80.7134 140.615 81.3497 141.569 82.4632C142.523 83.5768 146.499 86.4401 146.499 86.4401L148.407 69.1011Z" fill="#D0CDE1"/>
<path d="M161.156 46.5863C160.657 45.9167 160.011 45.3709 159.268 44.9914C158.524 44.6119 157.704 44.4088 156.869 44.3979H156.666C152.744 44.3979 149.565 47.9477 149.565 52.3265L150.879 52.3265L151.091 50.7107L151.402 52.3265H159.196L159.849 50.9595L159.685 52.3265H161.219C161.934 55.8807 160.906 59.4349 158.135 62.9891H160.746L162.052 60.2551L161.726 62.9891H166.705L167.684 56.7009C167.684 51.9916 164.949 47.9983 161.156 46.5863Z" fill="#2F2E41"/>
<path d="M27.9669 119.961C29.6399 116.317 30.8164 107.68 30.8164 97.6031C30.8164 84.2335 26.8964 70.9282 24.3424 70.9282H16.6353V168.993H24.3424V124.278H55.1711V168.993H62.8783V119.961H27.9669ZM24.3424 119.791C24.3674 119.848 24.3922 119.906 24.4174 119.961H24.3424V119.791Z" fill="#3F3D56"/>
<path d="M60.0911 102.071C60.0911 102.071 69.3731 105.921 66.43 108.185C63.487 110.45 57.3745 105.468 57.6009 104.788C57.8273 104.109 56.6953 102.524 56.6953 102.524L60.0911 102.071Z" fill="#9F616A"/>
<path d="M51.941 71.7256L54.8841 74.4431L55.5632 82.3691L57.8271 90.748C57.8271 90.748 61.6757 98.674 60.9966 100.259C60.3174 101.844 61.6757 102.297 61.6757 102.297L56.4688 104.335C56.4688 104.335 50.8091 97.9946 50.8091 96.6359C50.8091 95.2771 51.941 71.7256 51.941 71.7256Z" fill="#575A88"/>
<path opacity="0.1" d="M51.941 71.7256L54.8841 74.4431L55.5632 82.3691L57.8271 90.748C57.8271 90.748 61.6757 98.674 60.9966 100.259C60.3174 101.844 61.6757 102.297 61.6757 102.297L56.4688 104.335C56.4688 104.335 50.8091 97.9946 50.8091 96.6359C50.8091 95.2771 51.941 71.7256 51.941 71.7256Z" fill="black"/>
<path d="M79.787 153.25C79.787 153.25 78.655 158.459 78.4286 158.911C78.2022 159.364 82.73 160.95 82.73 160.95L88.1633 157.1C88.1633 157.1 85.8995 152.118 85.8995 151.212L79.787 153.25Z" fill="#575A88"/>
<path d="M50.13 102.523L51.7147 104.335C51.7147 104.335 84.5411 108.411 85.2203 114.752C85.8994 121.093 90.6536 150.985 87.9369 151.891C85.2203 152.797 78.2022 156.194 78.2022 154.382C78.2022 152.57 73.6744 127.66 74.58 123.131C74.58 123.131 35.4147 118.149 34.5092 112.488C33.6036 106.826 35.4147 104.335 35.4147 104.335L50.13 102.523Z" fill="#2F2E41"/>
<path opacity="0.1" d="M50.13 102.523L51.7147 104.335C51.7147 104.335 84.5411 108.411 85.2203 114.752C85.8994 121.093 90.6536 150.985 87.9369 151.891C85.2203 152.797 78.2022 156.194 78.2022 154.382C78.2022 152.57 73.6744 127.66 74.58 123.131C74.58 123.131 35.4147 118.149 34.5092 112.488C33.6036 106.826 35.4147 104.335 35.4147 104.335L50.13 102.523Z" fill="black"/>
<path d="M79.3342 158.458C79.3342 158.458 78.4287 156.42 77.9759 157.1C77.5231 157.779 75.9384 165.705 77.5231 165.705C79.1078 165.705 93.5967 169.328 95.6342 168.875C97.6717 168.423 101.52 169.102 101.068 166.837C100.615 164.573 98.3509 164.346 98.3509 164.346C98.3509 164.346 89.9745 159.364 89.5217 156.873C89.0689 154.382 86.5787 155.741 86.5787 155.741V157.326C86.5787 157.326 81.8245 160.949 79.3342 158.458Z" fill="#2F2E41"/>
<path d="M36.3203 54.5147C36.3203 54.5147 37.905 62.2143 34.5091 62.8936C31.1133 63.573 38.8105 68.1021 38.8105 68.1021L43.7911 70.8196L47.4133 67.1963C47.4133 67.1963 44.1307 60.5158 46.621 55.5338C49.1112 50.5517 36.3203 54.5147 36.3203 54.5147Z" fill="#9F616A"/>
<path d="M47.4133 67.1963L43.7911 70.8196L38.8105 68.1021C38.8105 68.1021 31.1133 63.573 34.5091 62.8936C36.6938 62.4566 36.816 59.1141 36.6281 56.7861C36.5668 56.0239 36.464 55.2657 36.3203 54.5147C36.3203 54.5147 49.1112 50.5517 46.621 55.5338C46.2426 56.3031 45.9801 57.1242 45.8422 57.9705C45.0792 62.4475 47.4133 67.1963 47.4133 67.1963Z" fill="#9F616A"/>
<path d="M60.0911 159.817V165.026H68.6938L69.373 162.988L68.4675 157.553L60.0911 159.817Z" fill="#575A88"/>
<path d="M24.5481 107.053C24.5481 107.053 24.5481 120.414 29.9814 120.867C35.4148 121.32 54.8842 123.811 54.8842 123.811C54.8842 123.811 56.0162 146.004 58.0537 153.25C60.0912 160.497 58.28 160.95 60.0912 161.403C61.9023 161.856 69.5995 160.27 69.3731 158.685C69.1467 157.1 68.2412 117.017 68.2412 117.017C68.2412 117.017 70.2787 108.412 43.112 104.335L24.5481 107.053Z" fill="#2F2E41"/>
<path d="M60.7703 163.44C60.7703 163.44 59.412 160.496 59.1856 161.402C58.9592 162.308 56.2425 170.234 58.9592 170.913C61.6759 171.593 70.2786 175.216 75.9384 174.99C81.5981 174.763 82.2773 174.537 82.2773 174.537C82.2773 174.537 83.862 172.272 81.8245 170.913C79.787 169.555 71.4106 161.629 70.9578 160.723C70.505 159.817 67.1092 159.138 67.1092 160.723C67.1092 162.308 62.355 165.478 60.7703 163.44Z" fill="#2F2E41"/>
<path opacity="0.1" d="M46.621 55.5338C46.2426 56.3031 45.9802 57.1242 45.8422 57.9705C44.7148 58.6521 43.9609 58.4777 42.546 58.4777C40.4474 58.4777 39.6007 55.7942 38.2446 54.4015C38.1382 53.1084 36.3203 54.5147 36.3203 54.5147C36.3203 54.5147 49.1113 50.5517 46.621 55.5338Z" fill="black"/>
<path d="M41.9801 58.3646C46.1061 58.3646 49.4509 55.0188 49.4509 50.8915C49.4509 46.7643 46.1061 43.4185 41.9801 43.4185C37.8541 43.4185 34.5093 46.7643 34.5093 50.8915C34.5093 55.0188 37.8541 58.3646 41.9801 58.3646Z" fill="#9F616A"/>
<path d="M54.8842 74.4428C54.8842 74.4428 53.7522 82.5952 53.073 85.5392C52.3939 88.4831 51.4883 102.071 51.0355 103.882C50.5828 105.694 47.8661 106.147 42.4328 105.467C42.0917 105.424 41.7486 105.399 41.405 105.39C38.0589 105.284 34.2307 106.536 30.6877 107.519C28.6502 108.085 26.7055 108.561 25.0008 108.638C22.42 108.756 21.6639 105.893 21.7522 102.795C21.8359 99.9124 22.6532 96.8212 23.4161 95.7297C24.7903 93.7641 23.4387 76.1163 23.9459 70.2963V70.2941C24.0228 69.4063 24.1428 68.7949 24.3217 68.5549C25.68 66.7432 34.5092 62.2141 35.4985 62.3975C36.4855 62.5809 44.923 67.8755 44.923 67.8755C46.9605 67.8755 46.8949 65.6653 46.8949 65.6653C46.8949 65.6653 48.3189 68.3284 51.0355 69.0078C53.7522 69.6872 54.8842 74.4428 54.8842 74.4428Z" fill="#575A88"/>
<path d="M39.7506 103.801C39.7506 103.801 54.3337 104.266 51.779 105.999C49.2244 107.732 37.9049 109.317 37.6785 107.053C37.4521 104.788 39.7506 103.801 39.7506 103.801Z" fill="#9F616A"/>
<path opacity="0.1" d="M41.405 105.39C41.4526 106.26 39.114 108.219 38.3578 109.544C37.939 110.277 34.6971 109.31 30.6878 107.519C27.6111 106.138 24.6264 104.56 21.7522 102.795C21.836 99.9125 22.6532 96.8213 23.4162 95.7298C24.7904 93.7641 23.4388 76.1163 23.9459 70.2964V70.2941C24.0668 70.2327 24.1925 70.1812 24.3217 70.1401H27.0384C36.3203 74.4428 25.68 93.0123 25.68 93.0123C25.68 93.0123 39.7162 104.562 41.0745 105.015C41.1636 105.031 41.2445 105.078 41.3043 105.146C41.3642 105.214 41.3996 105.3 41.405 105.39Z" fill="black"/>
<path d="M27.0382 68.7812H24.3216C24.3216 68.7812 21.8313 69.4606 19.7938 73.9898C17.7563 78.5189 10.2855 92.5592 16.8507 97.9942C23.416 103.429 37.4521 109.77 38.3577 108.185C39.2632 106.6 42.4327 104.109 41.0744 103.656C39.716 103.203 25.6799 91.6534 25.6799 91.6534C25.6799 91.6534 36.3202 73.0839 27.0382 68.7812Z" fill="#575A88"/>
<path d="M40.8307 47.4138C40.8307 47.4138 41.1586 42.8739 45.2032 44.725C49.2478 46.5762 48.9839 41.4739 47.7616 40.5722C46.5394 39.6706 46.5781 39.4475 42.1078 40.0507C37.6375 40.654 28.9587 41.6761 31.765 50.6672C34.5712 59.6582 37.1127 57.3453 37.1127 57.3453C37.1127 57.3453 34.8821 49.2545 37.1423 50.7959L39.4024 52.3373L40.5951 52.0847L40.8307 47.4138Z" fill="#2F2E41"/>
<path d="M207.72 112.786C207.72 108.698 177.354 105.385 139.897 105.385C102.439 105.385 72.0737 108.698 72.0737 112.786C72.0737 114.37 76.6375 115.838 84.4052 117.042V167.677H88.1046V117.564C100.546 119.168 119.129 120.187 139.897 120.187C160.836 120.187 179.556 119.151 191.997 117.524V167.677H195.697V116.993C203.276 115.798 207.72 114.349 207.72 112.786Z" fill="#3F3D56"/>
<path d="M148.394 112.941C156.021 112.941 162.203 111.42 162.203 109.544C162.203 107.668 156.021 106.147 148.394 106.147C140.767 106.147 134.584 107.668 134.584 109.544C134.584 111.42 140.767 112.941 148.394 112.941Z" fill="#F2F2F2"/>
<path d="M148.394 112.328C154.645 112.328 159.713 111.081 159.713 109.544C159.713 108.006 154.645 106.759 148.394 106.759C142.142 106.759 137.074 108.006 137.074 109.544C137.074 111.081 142.142 112.328 148.394 112.328Z" fill="#D0CDE1"/>
<path d="M97.0033 115.658C104.63 115.658 110.813 114.137 110.813 112.261C110.813 110.385 104.63 108.864 97.0033 108.864C89.3764 108.864 83.1936 110.385 83.1936 112.261C83.1936 114.137 89.3764 115.658 97.0033 115.658Z" fill="#F2F2F2"/>
<path d="M97.0033 115.046C103.255 115.046 108.323 113.799 108.323 112.261C108.323 110.724 103.255 109.477 97.0033 109.477C90.7517 109.477 85.6838 110.724 85.6838 112.261C85.6838 113.799 90.7517 115.046 97.0033 115.046Z" fill="#D0CDE1"/>
<path d="M148.072 109.304C151.708 109.304 154.656 108.838 154.656 108.264C154.656 107.69 151.708 107.224 148.072 107.224C144.436 107.224 141.489 107.69 141.489 108.264C141.489 108.838 144.436 109.304 148.072 109.304Z" fill="#9F616A"/>
<path d="M144.564 107.874C145.712 107.874 146.643 107.37 146.643 106.748C146.643 106.125 145.712 105.621 144.564 105.621C143.416 105.621 142.485 106.125 142.485 106.748C142.485 107.37 143.416 107.874 144.564 107.874Z" fill="#FFBA3127"/>
<path d="M143.784 107.874C144.933 107.874 145.863 107.37 145.863 106.748C145.863 106.125 144.933 105.621 143.784 105.621C142.636 105.621 141.705 106.125 141.705 106.748C141.705 107.37 142.636 107.874 143.784 107.874Z" fill="#FFBA3127"/>
<path d="M152.88 108.134C154.028 108.134 154.959 107.63 154.959 107.008C154.959 106.386 154.028 105.881 152.88 105.881C151.732 105.881 150.801 106.386 150.801 107.008C150.801 107.63 151.732 108.134 152.88 108.134Z" fill="#FFBA3127"/>
<path d="M148.116 107.874C149.264 107.874 150.195 107.37 150.195 106.748C150.195 106.125 149.264 105.621 148.116 105.621C146.967 105.621 146.037 106.125 146.037 106.748C146.037 107.37 146.967 107.874 148.116 107.874Z" fill="#FFBA3127"/>
<path d="M151.667 107.874C152.815 107.874 153.746 107.37 153.746 106.748C153.746 106.125 152.815 105.621 151.667 105.621C150.519 105.621 149.588 106.125 149.588 106.748C149.588 107.37 150.519 107.874 151.667 107.874Z" fill="#FFBA3127"/>
<path d="M154.353 106.055C150.595 107.33 146.379 107.33 141.705 106.055V105.879C141.705 104.553 142.213 103.278 143.126 102.316C144.04 101.355 145.287 100.782 146.611 100.715C147.725 100.659 148.842 100.66 149.956 100.719C151.147 100.789 152.266 101.311 153.084 102.181C153.902 103.05 154.356 104.199 154.353 105.392V106.055Z" fill="#3F3D56"/>
<path d="M152.508 110.829C149.731 111.11 146.933 111.11 144.156 110.829C143.498 110.765 142.886 110.458 142.441 109.967C141.997 109.477 141.75 108.839 141.749 108.177H154.915C154.914 108.839 154.667 109.477 154.223 109.967C153.778 110.458 153.166 110.765 152.508 110.829Z" fill="#3F3D56"/>
<path d="M146.296 102.328C145.994 102.454 145.671 102.519 145.343 102.519C145.016 102.519 144.693 102.454 144.391 102.328C144.693 102.202 145.016 102.138 145.343 102.138C145.671 102.138 145.994 102.202 146.296 102.328Z" fill="#D0CDE1"/>
<path d="M148.202 103.108C147.9 103.234 147.576 103.299 147.249 103.299C146.922 103.299 146.598 103.234 146.296 103.108C146.598 102.982 146.922 102.917 147.249 102.917C147.576 102.917 147.9 102.982 148.202 103.108Z" fill="#D0CDE1"/>
<path d="M148.375 101.722C148.074 101.848 147.75 101.913 147.423 101.913C147.096 101.913 146.772 101.848 146.47 101.722C146.772 101.596 147.096 101.531 147.423 101.531C147.75 101.531 148.074 101.596 148.375 101.722Z" fill="#D0CDE1"/>
<path d="M151.927 101.722C151.625 101.848 151.301 101.913 150.974 101.913C150.647 101.913 150.323 101.848 150.021 101.722C150.323 101.596 150.647 101.531 150.974 101.531C151.301 101.531 151.625 101.596 151.927 101.722Z" fill="#D0CDE1"/>
<path d="M150.974 102.502C150.672 102.628 150.348 102.692 150.021 102.692C149.694 102.692 149.37 102.628 149.068 102.502C149.37 102.376 149.694 102.311 150.021 102.311C150.348 102.311 150.672 102.376 150.974 102.502Z" fill="#D0CDE1"/>
<path d="M96.9084 112.022C100.544 112.022 103.492 111.556 103.492 110.982C103.492 110.407 100.544 109.942 96.9084 109.942C93.2725 109.942 90.325 110.407 90.325 110.982C90.325 111.556 93.2725 112.022 96.9084 112.022Z" fill="#9F616A"/>
<path d="M93.4 110.592C94.5482 110.592 95.479 110.087 95.479 109.465C95.479 108.843 94.5482 108.339 93.4 108.339C92.2518 108.339 91.321 108.843 91.321 109.465C91.321 110.087 92.2518 110.592 93.4 110.592Z" fill="#FFBA3127"/>
<path d="M92.6205 110.592C93.7687 110.592 94.6995 110.087 94.6995 109.465C94.6995 108.843 93.7687 108.339 92.6205 108.339C91.4723 108.339 90.5415 108.843 90.5415 109.465C90.5415 110.087 91.4723 110.592 92.6205 110.592Z" fill="#FFBA3127"/>
<path d="M101.716 110.852C102.864 110.852 103.795 110.347 103.795 109.725C103.795 109.103 102.864 108.599 101.716 108.599C100.568 108.599 99.637 109.103 99.637 109.725C99.637 110.347 100.568 110.852 101.716 110.852Z" fill="#FFBA3127"/>
<path d="M96.9515 110.592C98.0997 110.592 99.0305 110.087 99.0305 109.465C99.0305 108.843 98.0997 108.339 96.9515 108.339C95.8034 108.339 94.8726 108.843 94.8726 109.465C94.8726 110.087 95.8034 110.592 96.9515 110.592Z" fill="#FFBA3127"/>
<path d="M100.503 110.592C101.651 110.592 102.582 110.087 102.582 109.465C102.582 108.843 101.651 108.339 100.503 108.339C99.3551 108.339 98.4243 108.843 98.4243 109.465C98.4243 110.087 99.3551 110.592 100.503 110.592Z" fill="#FFBA3127"/>
<path d="M103.189 108.772C99.4314 110.047 95.2156 110.047 90.5415 108.772V108.596C90.5407 107.27 91.0495 105.995 91.9626 105.034C92.8758 104.072 94.1233 103.499 95.4472 103.432C96.5615 103.376 97.6779 103.377 98.792 103.436C99.9831 103.506 101.102 104.029 101.92 104.898C102.738 105.767 103.192 106.916 103.189 108.11V108.772Z" fill="#3F3D56"/>
<path d="M101.344 113.547C98.5672 113.828 95.7692 113.828 92.9924 113.547C92.3338 113.483 91.7226 113.175 91.2777 112.685C90.8327 112.195 90.5858 111.557 90.5847 110.895H103.752C103.751 111.557 103.504 112.195 103.059 112.685C102.614 113.175 102.003 113.483 101.344 113.547Z" fill="#3F3D56"/>
<path d="M95.1325 105.046C94.8306 105.172 94.5068 105.237 94.1797 105.237C93.8526 105.237 93.5287 105.172 93.2268 105.046C93.5287 104.92 93.8526 104.855 94.1797 104.855C94.5068 104.855 94.8306 104.92 95.1325 105.046Z" fill="#D0CDE1"/>
<path d="M97.0383 105.826C96.7364 105.952 96.4125 106.017 96.0854 106.017C95.7584 106.017 95.4345 105.952 95.1326 105.826C95.4345 105.7 95.7584 105.635 96.0854 105.635C96.4125 105.635 96.7364 105.7 97.0383 105.826Z" fill="#D0CDE1"/>
<path d="M97.2116 104.44C96.9097 104.565 96.5859 104.63 96.2588 104.63C95.9317 104.63 95.6078 104.565 95.3059 104.44C95.6078 104.314 95.9317 104.249 96.2588 104.249C96.5859 104.249 96.9097 104.314 97.2116 104.44Z" fill="#D0CDE1"/>
<path d="M100.763 104.44C100.461 104.565 100.137 104.63 99.8103 104.63C99.4832 104.63 99.1594 104.565 98.8574 104.44C99.1594 104.314 99.4832 104.249 99.8103 104.249C100.137 104.249 100.461 104.314 100.763 104.44Z" fill="#D0CDE1"/>
<path d="M99.8103 105.219C99.5084 105.345 99.1845 105.41 98.8574 105.41C98.5303 105.41 98.2065 105.345 97.9045 105.219C98.2065 105.094 98.5303 105.029 98.8574 105.029C99.1845 105.029 99.5084 105.094 99.8103 105.219Z" fill="#D0CDE1"/>
<path d="M160.274 108.624L160.306 109.325L160.346 110.235C160.346 110.235 156.169 110.471 155.327 111.36C155.308 111.38 155.29 111.4 155.274 111.422L153.601 111.056L153.596 110.231C153.596 110.231 153.62 110.218 153.664 110.194C153.675 110.189 153.687 110.182 153.7 110.175C155.748 109.172 157.994 108.642 160.274 108.624Z" fill="#FFBA3127"/>
<path opacity="0.1" d="M160.274 108.624L160.306 109.325C158.453 109.382 154.948 110.487 154.948 110.487L153.664 110.194C155.721 109.178 157.98 108.641 160.274 108.624Z" fill="black"/>
<path opacity="0.1" d="M153.7 110.175L154.948 110.486L155.327 111.36C155.308 111.379 155.29 111.4 155.274 111.422L153.601 111.055L153.596 110.231C153.596 110.231 153.62 110.218 153.664 110.194C153.675 110.188 153.687 110.182 153.7 110.175Z" fill="white"/>
<path d="M109.789 111.567L109.821 112.269L109.862 113.179C109.862 113.179 105.684 113.415 104.843 114.304C104.823 114.323 104.805 114.344 104.789 114.366L103.116 114L103.112 113.175C103.112 113.175 103.135 113.162 103.18 113.138C103.19 113.133 103.203 113.126 103.216 113.119C105.263 112.116 107.51 111.586 109.789 111.567Z" fill="#FFBA3127"/>
<path opacity="0.1" d="M109.789 111.567L109.821 112.269C107.969 112.326 104.463 113.431 104.463 113.431L103.18 113.138C105.236 112.122 107.496 111.585 109.789 111.567Z" fill="black"/>
<path opacity="0.1" d="M103.216 113.119L104.463 113.431L104.843 114.304C104.823 114.323 104.805 114.344 104.789 114.366L103.116 114L103.112 113.175C103.112 113.175 103.135 113.162 103.18 113.138C103.19 113.133 103.203 113.126 103.216 113.119Z" fill="white"/>
<path d="M185.432 87.6124C185.076 87.2562 184.658 86.9675 184.199 86.7601V77.9608C184.199 77.8576 184.158 77.7587 184.085 77.6857C184.012 77.6128 183.913 77.5718 183.81 77.5718H181.632C181.529 77.5718 181.43 77.6128 181.357 77.6857C181.284 77.7587 181.243 77.8576 181.243 77.9608V86.5913C180.456 86.8524 179.771 87.355 179.286 88.0276C178.8 88.7002 178.539 89.5086 178.538 90.3382V109.214C178.538 109.441 178.583 109.666 178.67 109.876C178.757 110.086 178.884 110.276 179.045 110.437C179.205 110.598 179.396 110.725 179.606 110.812C179.816 110.899 180.04 110.944 180.268 110.944H184.932C185.389 110.944 185.826 110.762 186.149 110.439C186.472 110.116 186.653 109.679 186.653 109.222V90.5607C186.654 90.013 186.546 89.4706 186.337 88.9646C186.127 88.4587 185.82 87.9991 185.432 87.6124Z" fill="#3F3D56"/>
<path d="M186.653 93.1055H178.538V103.829H186.653V93.1055Z" fill="#FFBA3127"/>
<path d="M184.374 78.1731H184.199V77.9608C184.199 77.8576 184.158 77.7587 184.085 77.6857C184.012 77.6128 183.913 77.5718 183.81 77.5718H181.632C181.529 77.5718 181.43 77.6128 181.357 77.6857C181.284 77.7587 181.243 77.8576 181.243 77.9608V78.1731H181.068V79.075H181.243V83.6849H184.199V79.075H184.374V78.1731Z" fill="#FFBA3127"/>
<path d="M120.456 95.2499C120.241 94.7914 120.072 94.4671 120.012 94.3555C116.37 95.2547 113.939 94.4948 113.556 94.3604C113.369 94.7145 112.199 96.9776 111.726 99.1473C111.298 101.104 111.546 102.416 112.463 103.047L112.49 103.066L112.496 103.07C113.507 103.737 114.472 104.327 115.363 104.825C115.483 104.892 115.597 104.954 115.703 105.011L115.714 105.018L115.722 105.028C115.845 105.182 115.958 105.343 116.063 105.509C116.26 105.785 116.38 106.108 116.409 106.445V116.166L116.348 116.167C114.025 116.214 112.586 116.608 112.586 116.946C112.586 117.317 114.311 117.73 116.785 117.73C119.26 117.73 120.985 117.317 120.985 116.946C120.985 116.613 119.571 116.222 117.287 116.169L117.225 116.167L117.282 107.176C117.284 106.567 117.425 105.967 117.696 105.421C117.742 105.33 117.792 105.241 117.843 105.157C117.885 105.089 117.929 105.023 117.974 104.961L117.982 104.949L117.994 104.943C118.109 104.88 118.23 104.812 118.359 104.739L118.374 104.731C119.218 104.255 120.126 103.696 121.075 103.07C121.923 102.511 122.218 101.382 121.952 99.7131C121.699 98.122 120.999 96.4078 120.456 95.2499Z" fill="#D0CDE1"/>
<path d="M120.673 102.866C119.678 103.523 118.857 104.015 118.228 104.369H118.228C117.311 104.307 116.391 104.332 115.479 104.446C114.835 104.087 113.966 103.571 112.897 102.866C112.887 102.86 112.877 102.853 112.867 102.846V102.845C111.886 102.17 111.862 100.741 112.181 99.2804C112.992 99.1902 114.286 99.2297 116.025 99.8509C118.083 100.586 120.238 100.17 121.487 99.7922C121.692 101.081 121.567 102.277 120.673 102.866Z" fill="#FFBA3127"/>
<path d="M114.757 98.7517C114.912 98.7517 115.039 98.6255 115.039 98.4698C115.039 98.3142 114.912 98.188 114.757 98.188C114.601 98.188 114.475 98.3142 114.475 98.4698C114.475 98.6255 114.601 98.7517 114.757 98.7517Z" fill="#FFBA3127"/>
<path d="M113.968 101.345C114.124 101.345 114.25 101.219 114.25 101.063C114.25 100.907 114.124 100.781 113.968 100.781C113.812 100.781 113.686 100.907 113.686 101.063C113.686 101.219 113.812 101.345 113.968 101.345Z" fill="white"/>
<path d="M115.433 99.3157C115.526 99.3157 115.602 99.24 115.602 99.1466C115.602 99.0533 115.526 98.9775 115.433 98.9775C115.34 98.9775 115.264 99.0533 115.264 99.1466C115.264 99.24 115.34 99.3157 115.433 99.3157Z" fill="#FFBA3127"/>
<path d="M116.109 102.529C116.203 102.529 116.278 102.453 116.278 102.36C116.278 102.266 116.203 102.19 116.109 102.19C116.016 102.19 115.94 102.266 115.94 102.36C115.94 102.453 116.016 102.529 116.109 102.529Z" fill="white"/>
<path d="M114.926 102.698C115.019 102.698 115.095 102.622 115.095 102.528C115.095 102.435 115.019 102.359 114.926 102.359C114.833 102.359 114.757 102.435 114.757 102.528C114.757 102.622 114.833 102.698 114.926 102.698Z" fill="white"/>
<path d="M118.363 97.0609C118.457 97.0609 118.532 96.9852 118.532 96.8918C118.532 96.7984 118.457 96.7227 118.363 96.7227C118.27 96.7227 118.194 96.7984 118.194 96.8918C118.194 96.9852 118.27 97.0609 118.363 97.0609Z" fill="#FFBA3127"/>
<path d="M133.672 86.0863C133.457 85.6278 133.288 85.3035 133.229 85.1919C129.586 86.0911 127.156 85.3312 126.772 85.1968C126.585 85.5509 125.415 87.814 124.942 89.9838C124.515 91.9409 124.763 93.2529 125.679 93.8834L125.706 93.9028L125.712 93.9068C126.724 94.5734 127.688 95.1638 128.58 95.6615C128.7 95.7283 128.813 95.7904 128.919 95.8478L128.931 95.854L128.939 95.8642C129.061 96.0183 129.175 96.1791 129.28 96.3456C129.477 96.6211 129.596 96.9443 129.626 97.2816V107.002L129.564 107.003C127.241 107.051 125.803 107.445 125.803 107.783C125.803 108.153 127.527 108.566 130.002 108.566C132.476 108.566 134.201 108.153 134.201 107.783C134.201 107.45 132.787 107.058 130.503 107.005L130.441 107.004L130.499 98.0122C130.5 97.4034 130.642 96.8031 130.912 96.2578C130.958 96.1662 131.008 96.077 131.06 95.993C131.101 95.9255 131.145 95.8595 131.19 95.7973L131.198 95.7858L131.211 95.779C131.325 95.7165 131.447 95.6488 131.575 95.5758L131.59 95.5676C132.434 95.0911 133.343 94.5324 134.292 93.9066C135.139 93.3477 135.434 92.2182 135.169 90.5495C134.916 88.9585 134.215 87.2442 133.672 86.0863Z" fill="#D0CDE1"/>
<path d="M133.89 93.7029C132.895 94.359 132.073 94.8511 131.445 95.2056H131.444C130.528 95.143 129.607 95.1689 128.695 95.2828C128.051 94.9232 127.182 94.4075 126.114 93.7029C126.103 93.6961 126.093 93.6894 126.083 93.682V93.6815C125.103 93.0068 125.078 91.5779 125.397 90.1169C126.209 90.0267 127.503 90.0661 129.241 90.6873C131.299 91.4229 133.454 91.0069 134.703 90.6287C134.908 91.9178 134.783 93.1139 133.89 93.7029Z" fill="#FFBA3127"/>
<path d="M127.973 89.5881C128.129 89.5881 128.255 89.4619 128.255 89.3062C128.255 89.1506 128.129 89.0244 127.973 89.0244C127.818 89.0244 127.691 89.1506 127.691 89.3062C127.691 89.4619 127.818 89.5881 127.973 89.5881Z" fill="#FFBA3127"/>
<path d="M127.184 92.1808C127.34 92.1808 127.466 92.0547 127.466 91.899C127.466 91.7434 127.34 91.6172 127.184 91.6172C127.028 91.6172 126.902 91.7434 126.902 91.899C126.902 92.0547 127.028 92.1808 127.184 92.1808Z" fill="white"/>
<path d="M128.649 90.1517C128.743 90.1517 128.818 90.076 128.818 89.9826C128.818 89.8892 128.743 89.8135 128.649 89.8135C128.556 89.8135 128.48 89.8892 128.48 89.9826C128.48 90.076 128.556 90.1517 128.649 90.1517Z" fill="#FFBA3127"/>
<path d="M129.326 93.3646C129.419 93.3646 129.495 93.2889 129.495 93.1955C129.495 93.1021 129.419 93.0264 129.326 93.0264C129.232 93.0264 129.156 93.1021 129.156 93.1955C129.156 93.2889 129.232 93.3646 129.326 93.3646Z" fill="white"/>
<path d="M128.142 93.534C128.236 93.534 128.311 93.4583 128.311 93.3649C128.311 93.2715 128.236 93.1958 128.142 93.1958C128.049 93.1958 127.973 93.2715 127.973 93.3649C127.973 93.4583 128.049 93.534 128.142 93.534Z" fill="white"/>
<path d="M131.579 87.8973C131.673 87.8973 131.749 87.8216 131.749 87.7282C131.749 87.6348 131.673 87.5591 131.579 87.5591C131.486 87.5591 131.41 87.6348 131.41 87.7282C131.41 87.8216 131.486 87.8973 131.579 87.8973Z" fill="#FFBA3127"/>
</g>
<defs>
<clipPath id="clip0_502_5">
<rect width="226" height="175" fill="white"/>
</clipPath>
</defs>
</svg>
